<?xml version="1.0" encoding="iso-8859-1"?>
<!-- Generator: Adobe Illustrator 19.1.0, SVG Export Plug-In . SVG Version: 6.00 Build 0)  -->
<svg version="1.1" id="&#x421;&#x43B;&#x43E;&#x439;_1"
	 xmlns="http://www.w3.org/2000/svg" xmlns:xlink="http://www.w3.org/1999/xlink" x="0px" y="0px" viewBox="0 0 8.021 12.164"
	 style="enable-background:new 0 0 8.021 12.164;" xml:space="preserve">
<path style="fill:#FFFFFF;" d="M3.846,0C5.95,0,8.021,0.969,8.021,3.287c0,2.137-2.449,2.959-2.975,3.732
	C4.651,7.593,4.783,8.4,3.698,8.4c-0.707,0-1.052-0.575-1.052-1.101c0-1.957,2.876-2.4,2.876-4.012c0-0.887-0.59-1.413-1.577-1.413
	c-2.104,0-1.282,2.169-2.876,2.169C0.494,4.043,0,3.698,0,3.041C0,1.429,1.84,0,3.846,0z M3.764,9.467
	c0.739,0,1.348,0.607,1.348,1.348s-0.608,1.348-1.348,1.348s-1.348-0.607-1.348-1.348C2.416,10.075,3.024,9.467,3.764,9.467z"/>
<g>
</g>
<g>
</g>
<g>
</g>
<g>
</g>
<g>
</g>
<g>
</g>
<g>
</g>
<g>
</g>
<g>
</g>
<g>
</g>
<g>
</g>
<g>
</g>
<g>
</g>
<g>
</g>
<g>
</g>
</svg>
