<?xml version="1.0" encoding="iso-8859-1"?>
<!-- Generator: Adobe Illustrator 19.1.0, SVG Export Plug-In . SVG Version: 6.00 Build 0)  -->
<svg version="1.1" id="&#x421;&#x43B;&#x43E;&#x439;_1"
	 xmlns="http://www.w3.org/2000/svg" xmlns:xlink="http://www.w3.org/1999/xlink" x="0px" y="0px" viewBox="0 0 4481.817 990.513"
	 style="enable-background:new 0 0 4481.817 990.513;" xml:space="preserve">
<g>
	<path style="fill:#B0BEC5;" d="M20.503,0H0.33C0.148,0,0,0.148,0,0.33v15.773c0,0.182,0.148,0.33,0.33,0.33h20.173
		c0.182,0,0.33-0.148,0.33-0.33V0.33C20.834,0.148,20.686,0,20.503,0z M18.853,13.801L14.313,9.1
		c-0.05-0.052-0.132-0.055-0.186-0.008l-3.149,2.771L6.954,6.908c-0.026-0.032-0.064-0.051-0.108-0.05
		C6.805,6.859,6.766,6.879,6.741,6.913L1.981,13.3V1.981h16.873L18.853,13.801L18.853,13.801z"/>
	<path style="fill:#B0BEC5;" d="M4480.198,990.513c0.894,0,1.619-0.725,1.619-1.619c0-0.894-0.726-1.62-1.619-1.62
		c-0.895,0-1.619,0.725-1.619,1.62C4478.579,989.788,4479.303,990.513,4480.198,990.513z"/>
</g>
<g>
</g>
<g>
</g>
<g>
</g>
<g>
</g>
<g>
</g>
<g>
</g>
<g>
</g>
<g>
</g>
<g>
</g>
<g>
</g>
<g>
</g>
<g>
</g>
<g>
</g>
<g>
</g>
<g>
</g>
</svg>
