<?xml version="1.0" encoding="iso-8859-1"?>
<!-- Generator: Adobe Illustrator 19.1.0, SVG Export Plug-In . SVG Version: 6.00 Build 0)  -->
<svg version="1.1" id="&#x421;&#x43B;&#x43E;&#x439;_1"
	 xmlns="http://www.w3.org/2000/svg" xmlns:xlink="http://www.w3.org/1999/xlink" x="0px" y="0px" viewBox="0 0 9.932 10.192"
	 style="enable-background:new 0 0 9.932 10.192;" xml:space="preserve">
<path style="fill:#37474F;" d="M9.932,4.666c0-0.359-0.289-0.651-0.651-0.651H3.886l2.289-2.289c0.253-0.253,0.253-0.665,0-0.923
	L5.561,0.19c-0.253-0.253-0.665-0.253-0.923,0L0.191,4.636C0.065,4.763,0,4.929,0,5.096c0,0.166,0.065,0.333,0.191,0.46l4.447,4.447
	c0.253,0.253,0.665,0.253,0.923,0l0.614-0.615c0.253-0.253,0.253-0.665,0-0.923L3.886,6.185h5.391c0.359,0,0.651-0.292,0.651-0.651
	L9.932,4.666z"/>
<g>
</g>
<g>
</g>
<g>
</g>
<g>
</g>
<g>
</g>
<g>
</g>
<g>
</g>
<g>
</g>
<g>
</g>
<g>
</g>
<g>
</g>
<g>
</g>
<g>
</g>
<g>
</g>
<g>
</g>
</svg>
