<svg xmlns="http://www.w3.org/2000/svg" viewBox="0 0 5773.634 2768.167"><g fill="#455a64"><path d="M16.532 2761.35h-2.114a6.423 6.423 0 0 0-1.222-3.264l1.403-1.403a.572.572 0 0 0-.81-.808l-1.355 1.356a5.96 5.96 0 0 0-.656-.53c-.066-1.375-.91-2.54-2.074-3.01l.795-.795a.572.572 0 0 0-.807-.808l-1.14 1.14-1.13-1.13a.572.572 0 0 0-.81.81l.785.783c-1.166.472-2.01 1.635-2.074 3.01-.23.16-.45.34-.656.53l-1.356-1.355a.572.572 0 0 0-.808.808l1.403 1.403a6.42 6.42 0 0 0-1.222 3.265H.57a.57.57 0 1 0 0 1.143h2.115a6.42 6.42 0 0 0 1.222 3.265l-1.403 1.403a.572.572 0 0 0 .808.81l1.356-1.357c1.038.967 2.396 1.554 3.883 1.554s2.846-.588 3.884-1.554l1.356 1.356a.568.568 0 0 0 .808 0 .572.572 0 0 0 0-.81l-1.403-1.402a6.428 6.428 0 0 0 1.222-3.265h2.114a.57.57 0 0 0 .002-1.142zm-7.98-6.743c.876 0 1.626.588 1.937 1.418a5.556 5.556 0 0 0-3.875 0c.31-.83 1.06-1.418 1.937-1.418zm-4.75 7.318v-.006c.002-2.605 1.83-4.758 4.18-5.062v10.13c-2.35-.306-4.178-2.458-4.18-5.063zm5.32 5.062v-10.13c2.35.305 4.176 2.456 4.178 5.06v.01c-.002 2.604-1.83 4.756-4.177 5.06z"/><circle cx="5767.841" cy=".72" r=".72"/><path d="M5766.47 2.477a.72.72 0 1 0 0 1.44.72.72 0 0 0 0-1.44zm1.37 2.455a.72.72 0 1 0 0 1.44.72.72 0 0 0 0-1.44z"/><circle cx="5771.543" cy=".72" r=".72"/><circle cx="5772.915" cy="3.197" r=".72"/><circle cx="5771.543" cy="5.652" r=".72"/></g></svg>