<?xml version="1.0" encoding="iso-8859-1"?>
<!-- Generator: Adobe Illustrator 19.1.0, SVG Export Plug-In . SVG Version: 6.00 Build 0)  -->
<svg version="1.1" id="&#x421;&#x43B;&#x43E;&#x439;_1"
	 xmlns="http://www.w3.org/2000/svg" xmlns:xlink="http://www.w3.org/1999/xlink" x="0px" y="0px" viewBox="0 0 5773.634 2768.167"
	 style="enable-background:new 0 0 5773.634 2768.167;" xml:space="preserve">
<g>
	<path style="fill:#455A64;" d="M16.532,2761.351h-2.114c-0.105-1.224-0.545-2.346-1.222-3.265l1.403-1.403
		c0.223-0.223,0.223-0.585,0-0.808s-0.585-0.223-0.808,0l-1.356,1.356c-0.206-0.192-0.425-0.369-0.656-0.53
		c-0.065-1.376-0.908-2.54-2.073-3.011l0.795-0.795c0.223-0.223,0.223-0.585,0-0.808c-0.223-0.223-0.585-0.223-0.808,0l-1.141,1.141
		l-1.13-1.13c-0.223-0.223-0.585-0.223-0.808,0c-0.223,0.223-0.223,0.585,0,0.808l0.784,0.784c-1.166,0.472-2.009,1.635-2.074,3.011
		c-0.23,0.16-0.449,0.338-0.656,0.53l-1.356-1.356c-0.223-0.223-0.585-0.223-0.808,0c-0.223,0.223-0.223,0.585,0,0.808l1.403,1.403
		c-0.677,0.918-1.117,2.041-1.222,3.265H0.571c-0.316,0-0.571,0.256-0.571,0.571s0.256,0.571,0.571,0.571h2.114
		c0.105,1.224,0.545,2.347,1.222,3.265l-1.403,1.403c-0.223,0.223-0.223,0.585,0,0.808c0.112,0.112,0.258,0.167,0.404,0.167
		c0.146,0,0.292-0.056,0.404-0.167l1.356-1.356c1.038,0.967,2.396,1.554,3.883,1.554s2.845-0.588,3.883-1.554l1.356,1.356
		c0.112,0.112,0.258,0.167,0.404,0.167c0.146,0,0.292-0.056,0.404-0.167c0.223-0.223,0.223-0.585,0-0.808l-1.403-1.403
		c0.677-0.918,1.116-2.041,1.222-3.265h2.114c0.316,0,0.571-0.256,0.571-0.572C17.103,2761.606,16.847,2761.351,16.532,2761.351z
		 M8.552,2754.607c0.876,0,1.626,0.588,1.937,1.418c-0.607-0.225-1.258-0.348-1.937-0.348c-0.678,0-1.33,0.124-1.937,0.348
		C6.925,2755.195,7.676,2754.607,8.552,2754.607z M3.803,2761.925c0-0.001,0-0.002,0-0.003s0-0.002,0-0.003
		c0.001-2.604,1.828-4.757,4.178-5.061v10.129C5.631,2766.682,3.804,2764.53,3.803,2761.925L3.803,2761.925z M9.123,2766.987
		v-10.129c2.348,0.304,4.175,2.455,4.177,5.058c0,0.002,0,0.004,0,0.006s0,0.004,0,0.006
		C13.298,2764.531,11.471,2766.683,9.123,2766.987z"/>
	<circle style="fill:#455A64;" cx="5767.841" cy="0.72" r="0.72"/>
	<path style="fill:#455A64;" d="M5766.47,2.477c-0.397,0-0.72,0.322-0.72,0.72c0,0.397,0.323,0.72,0.72,0.72s0.72-0.322,0.72-0.72
		C5767.19,2.799,5766.868,2.477,5766.47,2.477z"/>
	<path style="fill:#455A64;" d="M5767.841,4.932c-0.397,0-0.72,0.322-0.72,0.72c0,0.398,0.323,0.72,0.72,0.72s0.72-0.322,0.72-0.72
		C5768.561,5.254,5768.239,4.932,5767.841,4.932z"/>
	<circle style="fill:#455A64;" cx="5771.543" cy="0.72" r="0.72"/>
	<circle style="fill:#455A64;" cx="5772.915" cy="3.197" r="0.72"/>
	<circle style="fill:#455A64;" cx="5771.543" cy="5.652" r="0.72"/>
</g>
</svg>
