<svg xmlns="http://www.w3.org/2000/svg" xmlns:xlink="http://www.w3.org/1999/xlink" viewBox="0 0 944.326 1055.189"><symbol id="a" viewBox="-229.648 -155.684 600.798 307.456"><path d="M-186.038 148.138a4.25 4.25 0 0 1-1.681 1.028 5.173 5.173 0 0 1-1.633.254c-.873 0-1.808-.195-2.704-.565-.882-.364-1.659-.867-2.247-1.456l-4.795-4.795-15.554 4.461a3.685 3.685 0 0 1-3.626-.938l-2.496-2.496a3.7 3.7 0 0 1-.903-1.476 3.714 3.714 0 0 1-.143-1.639 3.72 3.72 0 0 1 .583-1.539c.322-.484.761-.89 1.27-1.175l10.303-5.763-2.971-2.971-4.919.939a3.683 3.683 0 0 1-3.301-1.015l-.706-.706a3.704 3.704 0 0 1-.903-1.476 3.714 3.714 0 0 1-.143-1.639c.076-.547.277-1.08.583-1.539.322-.484.761-.89 1.27-1.175l5.793-3.242 3.242-5.793a3.696 3.696 0 0 1 3.221-1.888c.984 0 1.91.384 2.607 1.081l.706.706a3.685 3.685 0 0 1 1.015 3.301l-.939 4.918 2.971 2.971 5.763-10.303a3.693 3.693 0 0 1 3.221-1.888c.984 0 1.91.384 2.607 1.081l2.496 2.497a3.692 3.692 0 0 1 .938 3.626l-4.461 15.554 4.795 4.795c.877.877 1.575 2.208 1.868 3.561.168.775.199 1.521.093 2.218-.148.976-.57 1.835-1.22 2.486zm-2.652-6.354l-5.512-5.512a.983.983 0 0 1-.25-.967l4.741-16.528a.983.983 0 0 0-.25-.967l-2.496-2.497a.98.98 0 0 0-1.554.216l-6.874 12.288a.98.98 0 0 1-1.554.216l-5.224-5.224a.985.985 0 0 1-.271-.88l1.11-5.814a.982.982 0 0 0-.271-.88l-.706-.706a.98.98 0 0 0-1.554.216l-3.48 6.217a.988.988 0 0 1-.378.378l-6.217 3.479a.984.984 0 0 0-.215 1.555l.706.706a.984.984 0 0 0 .881.271l5.814-1.11a.986.986 0 0 1 .881.271l5.224 5.224a.985.985 0 0 1-.215 1.555l-12.288 6.874a.984.984 0 0 0-.215 1.555l2.497 2.497a.985.985 0 0 0 .967.25l16.528-4.741a.985.985 0 0 1 .967.25l5.512 5.512c.677.677 1.955 1.229 3.038 1.229.553 0 1.056-.144 1.401-.49 1.018-1.025.279-3.42-.743-4.443z"/><path d="M-208.499 111.502a3.723 3.723 0 0 0-3.248 1.904l-3.238 5.785-5.785 3.237a3.74 3.74 0 0 0-1.281 1.185c-.308.463-.511 1-.588 1.552a3.746 3.746 0 0 0 .144 1.653c.18.558.495 1.072.911 1.488l.706.706a3.709 3.709 0 0 0 3.329 1.024l4.902-.936 2.93 2.93-10.266 5.743a3.722 3.722 0 0 0-1.725 4.39c.18.558.495 1.072.911 1.488l2.496 2.496a3.714 3.714 0 0 0 3.658.946l15.536-4.456 4.782 4.782c.592.592 1.372 1.098 2.258 1.463.9.371 1.839.568 2.716.568.582 0 1.134-.086 1.643-.255a4.274 4.274 0 0 0 1.693-1.036c.655-.655 1.08-1.521 1.23-2.504a6.133 6.133 0 0 0-.093-2.229c-.294-1.359-.995-2.696-1.876-3.577l-4.782-4.782 4.456-15.536c.373-1.3.01-2.701-.946-3.657l-2.496-2.496a3.695 3.695 0 0 0-2.63-1.09c-1.347 0-2.592.73-3.249 1.905l-5.743 10.266-2.93-2.93.936-4.902a3.718 3.718 0 0 0-1.024-3.329l-.706-.706a3.7 3.7 0 0 0-2.631-1.09zm-9.748 18.537a3.648 3.648 0 0 1-2.587-1.072l-.706-.706a3.676 3.676 0 0 1-.895-1.463 3.68 3.68 0 0 1-.142-1.625c.075-.543.275-1.07.578-1.525a3.68 3.68 0 0 1 1.259-1.165l5.8-3.246.004-.008 3.242-5.793a3.663 3.663 0 0 1 3.193-1.871c.976 0 1.894.38 2.585 1.071l.706.706a3.655 3.655 0 0 1 1.007 3.272l-.942 4.935.012.012 3.001 3.001.02-.036 5.763-10.303a3.662 3.662 0 0 1 3.194-1.872c.976 0 1.894.38 2.585 1.071l2.496 2.497a3.66 3.66 0 0 1 .93 3.595l-4.466 15.571 4.809 4.809c.873.873 1.568 2.198 1.859 3.546.167.771.198 1.514.092 2.206-.148.97-.567 1.824-1.212 2.469a4.22 4.22 0 0 1-1.669 1.021 5.133 5.133 0 0 1-1.623.252c-.869 0-1.8-.195-2.692-.563-.878-.362-1.651-.863-2.237-1.449l-4.809-4.809-.018.005-15.554 4.461a3.658 3.658 0 0 1-3.595-.93l-2.496-2.496a3.665 3.665 0 0 1-.895-1.463 3.667 3.667 0 0 1 .437-3.151 3.684 3.684 0 0 1 1.26-1.165l10.339-5.784-3.013-3.013-4.935.942a3.566 3.566 0 0 1-.685.066zm9.748-15.832c-.368 0-.708.199-.888.52l-3.48 6.217a.947.947 0 0 1-.366.366l-6.217 3.479c-.28.157-.466.429-.51.747-.044.318.061.631.288.858l.706.706a1.008 1.008 0 0 0 .909.279l5.814-1.11a.962.962 0 0 1 .853.262l5.224 5.224a.945.945 0 0 1 .27.804.945.945 0 0 1-.479.701l-12.288 6.874c-.28.157-.466.429-.51.747-.044.318.061.631.288.858l2.497 2.497a1.01 1.01 0 0 0 .998.259l16.528-4.741a.948.948 0 0 1 .937.242l5.512 5.512c.718.718 2.005 1.238 3.061 1.238.605 0 1.097-.173 1.424-.499 1.034-1.034.292-3.453-.739-4.485l-5.512-5.512a.95.95 0 0 1-.242-.936l4.741-16.528a1.015 1.015 0 0 0-.258-.998l-2.496-2.497a1.017 1.017 0 0 0-1.605.222l-6.874 12.288a.954.954 0 0 1-1.505.209l-5.224-5.224a.953.953 0 0 1-.262-.852l1.11-5.814a1.016 1.016 0 0 0-.279-.909l-.706-.706a1.019 1.019 0 0 0-.72-.298zm-9.748 13.127a.948.948 0 0 1-.674-.279l-.706-.706a.945.945 0 0 1-.27-.804.947.947 0 0 1 .478-.701l6.217-3.479c.164-.092.299-.227.39-.39l3.48-6.217a.953.953 0 0 1 1.505-.208l.706.706a.953.953 0 0 1 .262.852l-1.11 5.814c-.063.331.041.67.279.909l5.224 5.224a1.017 1.017 0 0 0 1.605-.222l6.874-12.288a.954.954 0 0 1 1.505-.209l2.496 2.497a.95.95 0 0 1 .242.936l-4.741 16.528c-.102.355-.003.737.258.998l5.512 5.512c1.014 1.014 1.748 3.386.739 4.396-.314.314-.791.48-1.379.48-1.024 0-2.321-.524-3.016-1.22l-5.512-5.512a1.008 1.008 0 0 0-.998-.258l-16.528 4.741a.948.948 0 0 1-.937-.242l-2.497-2.497a.945.945 0 0 1-.27-.804.945.945 0 0 1 .479-.701l12.288-6.874c.28-.157.466-.429.51-.747a1.009 1.009 0 0 0-.288-.858l-5.224-5.224a1.023 1.023 0 0 0-.909-.279l-5.814 1.11a1.01 1.01 0 0 1-.176.016zM3.04 19.113a4.25 4.25 0 0 1-1.681 1.028 5.173 5.173 0 0 1-1.633.254c-.873 0-1.808-.196-2.704-.565-.882-.364-1.659-.867-2.247-1.456l-4.795-4.795-15.554 4.461a3.685 3.685 0 0 1-3.626-.938l-2.496-2.496a3.7 3.7 0 0 1-.903-1.476 3.714 3.714 0 0 1-.143-1.639 3.72 3.72 0 0 1 .583-1.539c.322-.484.761-.89 1.27-1.175l10.303-5.763-2.971-2.971-4.919.939a3.683 3.683 0 0 1-3.301-1.015l-.706-.706a3.704 3.704 0 0 1-.903-1.476 3.714 3.714 0 0 1-.143-1.639c.076-.547.277-1.08.583-1.539.322-.484.761-.89 1.27-1.175l5.793-3.242 3.242-5.793a3.696 3.696 0 0 1 3.221-1.888c.984 0 1.91.384 2.607 1.081l.706.706a3.688 3.688 0 0 1 1.015 3.301l-.939 4.918 2.971 2.971 5.763-10.303a3.693 3.693 0 0 1 3.221-1.888c.984 0 1.91.384 2.607 1.081l2.496 2.497a3.692 3.692 0 0 1 .938 3.626L-2.494 6.052l4.795 4.795c.877.877 1.575 2.208 1.868 3.561.168.775.199 1.521.093 2.218-.149.977-.572 1.837-1.222 2.487zM.388 12.76l-5.512-5.512a.983.983 0 0 1-.25-.967l4.741-16.528a.983.983 0 0 0-.25-.967l-2.496-2.497a.982.982 0 0 0-1.556.215l-6.874 12.288a.98.98 0 0 1-1.554.216l-5.224-5.224a.985.985 0 0 1-.271-.88l1.11-5.814a.982.982 0 0 0-.271-.88l-.706-.706a.98.98 0 0 0-1.554.216l-3.48 6.217a.988.988 0 0 1-.378.378l-6.217 3.479a.984.984 0 0 0-.215 1.555l.706.706a.984.984 0 0 0 .881.271l5.814-1.11a.986.986 0 0 1 .881.271l5.224 5.224a.985.985 0 0 1-.215 1.555l-12.288 6.874a.984.984 0 0 0-.215 1.555l2.497 2.497a.985.985 0 0 0 .967.25l16.528-4.741a.985.985 0 0 1 .967.25l5.512 5.512c.677.677 1.955 1.229 3.038 1.229.553 0 1.056-.144 1.401-.49 1.021-1.024.282-3.419-.741-4.442z"/><path d="M-19.42-17.522a3.723 3.723 0 0 0-3.248 1.904l-3.238 5.785-5.785 3.237a3.74 3.74 0 0 0-1.281 1.185c-.308.463-.511 1-.588 1.552a3.746 3.746 0 0 0 .144 1.653c.18.558.495 1.072.911 1.488l.706.706a3.709 3.709 0 0 0 3.329 1.024l4.902-.936 2.93 2.93-10.266 5.743a3.722 3.722 0 0 0-1.725 4.39c.18.558.495 1.072.911 1.488l2.496 2.496a3.71 3.71 0 0 0 3.658.946l15.536-4.456 4.782 4.782c.592.592 1.372 1.098 2.258 1.463.9.371 1.839.568 2.716.568.582 0 1.134-.086 1.643-.255a4.274 4.274 0 0 0 1.693-1.036c.655-.655 1.08-1.521 1.23-2.504a6.133 6.133 0 0 0-.093-2.229c-.294-1.359-.995-2.696-1.876-3.577l-4.782-4.782L1.997-9.493c.373-1.3.01-2.701-.946-3.657l-2.496-2.497a3.695 3.695 0 0 0-2.63-1.09c-1.347 0-2.592.73-3.249 1.905l-5.743 10.266-2.93-2.93.936-4.902a3.718 3.718 0 0 0-1.024-3.329l-.706-.706a3.694 3.694 0 0 0-2.629-1.089zm-9.748 18.537a3.648 3.648 0 0 1-2.587-1.072l-.706-.706a3.676 3.676 0 0 1-.895-1.463 3.68 3.68 0 0 1-.142-1.625c.075-.543.275-1.07.578-1.525a3.68 3.68 0 0 1 1.259-1.165l5.8-3.246.004-.008 3.242-5.793a3.663 3.663 0 0 1 3.193-1.871c.976 0 1.894.38 2.585 1.071l.706.706a3.652 3.652 0 0 1 1.006 3.272l-.942 4.935.012.012 3.001 3.001.02-.036 5.763-10.303a3.662 3.662 0 0 1 3.194-1.872c.976 0 1.894.38 2.585 1.071l2.496 2.497a3.66 3.66 0 0 1 .93 3.595L-2.53 6.061l4.809 4.809c.873.873 1.568 2.198 1.859 3.546.167.771.198 1.514.092 2.206-.148.97-.567 1.824-1.212 2.469a4.22 4.22 0 0 1-1.669 1.021 5.133 5.133 0 0 1-1.623.252c-.869 0-1.8-.195-2.692-.563-.878-.362-1.651-.863-2.237-1.449l-4.809-4.809-.018.005-15.554 4.461a3.658 3.658 0 0 1-3.595-.93l-2.496-2.496a3.665 3.665 0 0 1-.895-1.463 3.667 3.667 0 0 1 .437-3.151 3.684 3.684 0 0 1 1.26-1.165l10.339-5.784-3.013-3.013-4.935.942a3.584 3.584 0 0 1-.686.066zm9.748-15.832c-.368 0-.708.199-.888.52l-3.48 6.217a.953.953 0 0 1-.366.366l-6.217 3.479c-.28.157-.466.429-.51.747s.061.631.288.858l.706.706a1.008 1.008 0 0 0 .909.279l5.814-1.11a.962.962 0 0 1 .853.262l5.224 5.224c.213.213.311.506.27.804s-.216.554-.479.701l-12.288 6.874c-.28.157-.466.429-.51.747-.044.318.061.631.288.858l2.497 2.497a1.01 1.01 0 0 0 .998.259l16.528-4.741a.948.948 0 0 1 .937.242l5.512 5.512c.718.718 2.005 1.238 3.061 1.238.605 0 1.097-.173 1.424-.499 1.034-1.034.292-3.453-.739-4.485L-5.1 7.226a.95.95 0 0 1-.242-.936l4.741-16.528a1.015 1.015 0 0 0-.258-.998l-2.496-2.497a1.017 1.017 0 0 0-1.605.222l-6.874 12.288a.954.954 0 0 1-1.505.209l-5.224-5.224a.953.953 0 0 1-.262-.852l1.11-5.814a1.016 1.016 0 0 0-.279-.909l-.706-.706a1.02 1.02 0 0 0-.72-.298zM-29.168-1.69a.948.948 0 0 1-.674-.279l-.706-.706a.945.945 0 0 1-.27-.804.947.947 0 0 1 .478-.701l6.217-3.479c.164-.092.299-.227.39-.39l3.48-6.217a.953.953 0 0 1 1.505-.208l.706.706a.953.953 0 0 1 .262.852l-1.11 5.814c-.063.331.041.67.279.909l5.224 5.224a1.017 1.017 0 0 0 1.605-.222l6.874-12.288a.954.954 0 0 1 1.505-.209l2.496 2.497a.95.95 0 0 1 .242.936L-5.404 6.272c-.102.355-.003.737.258.998l5.512 5.512c1.014 1.014 1.748 3.386.739 4.396-.314.314-.791.48-1.379.48-1.024 0-2.321-.524-3.016-1.22l-5.512-5.512a1.008 1.008 0 0 0-.998-.258l-16.528 4.741a.948.948 0 0 1-.937-.242l-2.497-2.497a.945.945 0 0 1-.27-.804.945.945 0 0 1 .479-.701l12.288-6.874c.28-.157.466-.429.51-.747a1.009 1.009 0 0 0-.288-.858l-5.224-5.224a1.023 1.023 0 0 0-.909-.279l-5.814 1.11a.967.967 0 0 1-.178.017zM208.337 150.459a4.25 4.25 0 0 1-1.681 1.028 5.173 5.173 0 0 1-1.633.254c-.873 0-1.808-.195-2.704-.565-.882-.364-1.659-.867-2.247-1.456l-4.795-4.795-15.554 4.461a3.685 3.685 0 0 1-3.626-.938l-2.496-2.496a3.7 3.7 0 0 1-.903-1.476 3.714 3.714 0 0 1-.143-1.639 3.72 3.72 0 0 1 .583-1.539c.322-.484.761-.89 1.27-1.175l10.303-5.763-2.971-2.971-4.919.939a3.683 3.683 0 0 1-3.301-1.015l-.706-.706a3.704 3.704 0 0 1-.903-1.476 3.714 3.714 0 0 1-.143-1.639c.076-.547.277-1.08.583-1.539.322-.484.761-.89 1.27-1.175l5.793-3.242 3.242-5.793a3.696 3.696 0 0 1 3.221-1.888c.984 0 1.91.384 2.607 1.081l.706.706a3.685 3.685 0 0 1 1.015 3.301l-.939 4.918 2.971 2.971L198 116.529a3.693 3.693 0 0 1 3.221-1.888c.984 0 1.91.384 2.607 1.081l2.496 2.497a3.692 3.692 0 0 1 .938 3.626l-4.461 15.554 4.795 4.795c.877.877 1.575 2.208 1.868 3.561.168.775.199 1.521.093 2.218-.147.976-.57 1.836-1.22 2.486zm-2.652-6.353l-5.512-5.512a.983.983 0 0 1-.25-.967l4.741-16.528a.983.983 0 0 0-.25-.967l-2.496-2.497a.98.98 0 0 0-1.554.216l-6.874 12.288a.98.98 0 0 1-1.554.216l-5.224-5.224a.985.985 0 0 1-.271-.88l1.11-5.814a.982.982 0 0 0-.271-.88l-.706-.706a.98.98 0 0 0-1.554.216l-3.48 6.217a.988.988 0 0 1-.378.378l-6.217 3.479a.984.984 0 0 0-.215 1.555l.706.706a.984.984 0 0 0 .881.271l5.814-1.11a.986.986 0 0 1 .881.271l5.224 5.224a.985.985 0 0 1-.215 1.555l-12.288 6.874a.984.984 0 0 0-.215 1.555l2.497 2.497a.985.985 0 0 0 .967.25l16.528-4.741a.985.985 0 0 1 .967.25l5.512 5.512c.677.677 1.955 1.229 3.038 1.229.553 0 1.056-.144 1.401-.49 1.019-1.026.28-3.421-.743-4.443z"/><path d="M185.877 113.823a3.723 3.723 0 0 0-3.248 1.904l-3.238 5.785-5.785 3.237a3.74 3.74 0 0 0-1.281 1.185c-.308.463-.511 1-.588 1.552a3.746 3.746 0 0 0 .144 1.653c.18.558.495 1.072.911 1.488l.706.706a3.709 3.709 0 0 0 3.329 1.024l4.902-.936 2.93 2.93-10.266 5.743a3.722 3.722 0 0 0-1.725 4.39c.18.558.495 1.072.911 1.488l2.496 2.496a3.714 3.714 0 0 0 3.658.946l15.536-4.456 4.782 4.782c.592.592 1.372 1.098 2.258 1.463.9.371 1.839.568 2.716.568.582 0 1.134-.086 1.643-.255a4.274 4.274 0 0 0 1.693-1.036c.655-.655 1.08-1.521 1.23-2.504a6.133 6.133 0 0 0-.093-2.229c-.294-1.359-.995-2.696-1.876-3.577l-4.782-4.782 4.456-15.536c.373-1.3.01-2.701-.946-3.657l-2.496-2.496a3.695 3.695 0 0 0-2.63-1.09c-1.347 0-2.592.73-3.249 1.905l-5.743 10.266-2.93-2.93.936-4.902a3.718 3.718 0 0 0-1.024-3.329l-.706-.706a3.7 3.7 0 0 0-2.631-1.09zm-9.748 18.537a3.648 3.648 0 0 1-2.587-1.072l-.706-.706a3.676 3.676 0 0 1-.895-1.463 3.68 3.68 0 0 1-.142-1.625c.075-.543.275-1.07.578-1.525a3.68 3.68 0 0 1 1.259-1.165l5.8-3.246.004-.008 3.242-5.793a3.663 3.663 0 0 1 3.193-1.871c.976 0 1.894.38 2.585 1.071l.706.706a3.655 3.655 0 0 1 1.007 3.272l-.942 4.935.012.012 3.001 3.001.02-.036 5.763-10.303a3.662 3.662 0 0 1 3.194-1.872c.976 0 1.894.38 2.585 1.071l2.496 2.497a3.66 3.66 0 0 1 .93 3.595l-4.466 15.571 4.809 4.809c.873.873 1.568 2.198 1.859 3.546.167.771.198 1.514.092 2.206-.148.97-.567 1.824-1.212 2.469a4.22 4.22 0 0 1-1.669 1.021 5.133 5.133 0 0 1-1.623.252c-.869 0-1.8-.195-2.692-.563-.878-.362-1.651-.863-2.237-1.449l-4.809-4.809-.018.005-15.554 4.461a3.658 3.658 0 0 1-3.595-.93l-2.496-2.496a3.665 3.665 0 0 1-.895-1.463 3.667 3.667 0 0 1 .437-3.151 3.684 3.684 0 0 1 1.26-1.165l10.339-5.784-3.013-3.013-4.935.942a3.495 3.495 0 0 1-.685.066zm9.748-15.832c-.368 0-.708.199-.888.52l-3.48 6.217a.947.947 0 0 1-.366.366l-6.217 3.479c-.28.157-.466.429-.51.747-.044.318.061.631.288.858l.706.706a1.008 1.008 0 0 0 .909.279l5.814-1.11a.962.962 0 0 1 .853.262l5.224 5.224a.945.945 0 0 1 .27.804.945.945 0 0 1-.479.701l-12.288 6.874c-.28.157-.466.429-.51.747-.044.318.061.631.288.858l2.497 2.497a1.01 1.01 0 0 0 .998.259l16.528-4.741a.948.948 0 0 1 .937.242l5.512 5.512c.718.718 2.005 1.238 3.061 1.238.605 0 1.097-.173 1.424-.499 1.034-1.034.292-3.453-.739-4.485l-5.512-5.512a.95.95 0 0 1-.242-.936l4.741-16.528a1.015 1.015 0 0 0-.258-.998l-2.496-2.497a1.017 1.017 0 0 0-1.605.222l-6.874 12.288a.954.954 0 0 1-1.505.209l-5.224-5.224a.953.953 0 0 1-.262-.852l1.11-5.814a1.016 1.016 0 0 0-.279-.909l-.706-.706a1.02 1.02 0 0 0-.72-.298zm-9.748 13.127a.948.948 0 0 1-.674-.279l-.706-.706a.945.945 0 0 1-.27-.804.947.947 0 0 1 .478-.701l6.217-3.479c.164-.092.299-.227.39-.39l3.48-6.217a.953.953 0 0 1 1.505-.208l.706.706a.953.953 0 0 1 .262.852l-1.11 5.814c-.063.331.041.67.279.909l5.224 5.224a1.017 1.017 0 0 0 1.605-.222l6.874-12.288a.954.954 0 0 1 1.505-.209l2.496 2.497a.95.95 0 0 1 .242.936l-4.741 16.528c-.102.355-.003.737.258.998l5.512 5.512c1.014 1.014 1.748 3.386.739 4.396-.314.314-.791.48-1.379.48-1.024 0-2.321-.524-3.016-1.22l-5.512-5.512a1.008 1.008 0 0 0-.998-.258l-16.528 4.741a.948.948 0 0 1-.937-.242l-2.497-2.497a.945.945 0 0 1-.27-.804.945.945 0 0 1 .479-.701l12.288-6.874c.28-.157.466-.429.51-.747a1.009 1.009 0 0 0-.288-.858l-5.224-5.224a1.023 1.023 0 0 0-.909-.279l-5.814 1.11a.937.937 0 0 1-.176.016zM-193.013-119.048a4.25 4.25 0 0 1-1.681 1.028 5.173 5.173 0 0 1-1.633.254c-.873 0-1.808-.196-2.704-.565-.882-.364-1.659-.867-2.247-1.456l-4.795-4.795-15.554 4.461a3.685 3.685 0 0 1-3.626-.938l-2.496-2.496a3.7 3.7 0 0 1-.903-1.476 3.714 3.714 0 0 1-.143-1.639 3.72 3.72 0 0 1 .583-1.539c.322-.484.761-.89 1.27-1.175l10.303-5.763-2.971-2.971-4.919.939a3.683 3.683 0 0 1-3.301-1.015l-.706-.706a3.704 3.704 0 0 1-.903-1.476 3.714 3.714 0 0 1-.143-1.639c.076-.547.277-1.08.583-1.539.322-.484.761-.89 1.27-1.175l5.793-3.242 3.242-5.793a3.696 3.696 0 0 1 3.221-1.888c.984 0 1.91.384 2.607 1.081l.706.706a3.688 3.688 0 0 1 1.015 3.301l-.939 4.918 2.971 2.971 5.763-10.303a3.693 3.693 0 0 1 3.221-1.888c.984 0 1.91.384 2.607 1.081l2.496 2.497a3.692 3.692 0 0 1 .938 3.626l-4.461 15.554 4.795 4.795c.877.877 1.575 2.208 1.868 3.561.168.775.199 1.521.093 2.218-.148.975-.57 1.835-1.22 2.486zm-2.652-6.354l-5.512-5.512a.983.983 0 0 1-.25-.967l4.741-16.528a.983.983 0 0 0-.25-.967l-2.496-2.497a.98.98 0 0 0-1.554.216l-6.874 12.288a.98.98 0 0 1-1.554.216l-5.224-5.224a.985.985 0 0 1-.271-.88l1.11-5.814a.982.982 0 0 0-.271-.88l-.706-.706a.98.98 0 0 0-1.554.216l-3.48 6.217a.988.988 0 0 1-.378.378l-6.217 3.479a.984.984 0 0 0-.215 1.555l.706.706a.984.984 0 0 0 .881.271l5.814-1.11a.986.986 0 0 1 .881.271l5.224 5.224a.985.985 0 0 1-.215 1.555l-12.288 6.874a.984.984 0 0 0-.215 1.555l2.497 2.497a.985.985 0 0 0 .967.25l16.528-4.741a.985.985 0 0 1 .967.25l5.512 5.512c.677.677 1.955 1.229 3.038 1.229.553 0 1.056-.144 1.401-.49 1.019-1.025.28-3.42-.743-4.443z"/><path d="M-215.473-155.684a3.723 3.723 0 0 0-3.248 1.904l-3.238 5.785-5.785 3.237a3.74 3.74 0 0 0-1.281 1.185c-.308.463-.511 1-.588 1.552a3.746 3.746 0 0 0 .144 1.653c.18.558.495 1.072.911 1.488l.706.706a3.709 3.709 0 0 0 3.329 1.024l4.902-.936 2.93 2.93-10.266 5.743a3.722 3.722 0 0 0-1.725 4.39c.18.558.495 1.072.911 1.488l2.496 2.496a3.714 3.714 0 0 0 3.658.946l15.536-4.456 4.782 4.782c.592.592 1.372 1.098 2.258 1.463.9.371 1.839.568 2.716.568.582 0 1.134-.086 1.643-.255a4.274 4.274 0 0 0 1.693-1.036c.655-.655 1.08-1.521 1.23-2.504a6.133 6.133 0 0 0-.093-2.229c-.294-1.359-.995-2.696-1.876-3.577l-4.782-4.782 4.456-15.536c.373-1.3.01-2.701-.946-3.657l-2.496-2.497a3.695 3.695 0 0 0-2.63-1.09c-1.347 0-2.592.73-3.249 1.904l-5.743 10.266-2.93-2.93.936-4.902a3.718 3.718 0 0 0-1.024-3.329l-.706-.706a3.71 3.71 0 0 0-2.631-1.088zm-9.748 18.537a3.648 3.648 0 0 1-2.587-1.072l-.706-.706a3.676 3.676 0 0 1-.895-1.463 3.68 3.68 0 0 1-.142-1.625c.075-.543.275-1.07.578-1.525a3.68 3.68 0 0 1 1.259-1.165l5.8-3.246.004-.008 3.242-5.793a3.663 3.663 0 0 1 3.193-1.871c.976 0 1.894.38 2.585 1.071l.706.706a3.655 3.655 0 0 1 1.007 3.272l-.942 4.935.012.012 3.001 3.001.02-.036 5.763-10.303a3.662 3.662 0 0 1 3.194-1.872c.976 0 1.894.38 2.585 1.071l2.496 2.497a3.66 3.66 0 0 1 .93 3.595l-4.466 15.571 4.809 4.809c.873.873 1.568 2.198 1.859 3.546.167.771.198 1.513.092 2.206-.148.97-.567 1.824-1.212 2.469a4.22 4.22 0 0 1-1.669 1.021 5.133 5.133 0 0 1-1.623.252c-.869 0-1.8-.195-2.692-.563-.878-.362-1.651-.863-2.237-1.449l-4.809-4.809-.018.005-15.554 4.461a3.658 3.658 0 0 1-3.595-.93l-2.496-2.496a3.665 3.665 0 0 1-.895-1.463 3.667 3.667 0 0 1 .437-3.151 3.684 3.684 0 0 1 1.26-1.165l10.339-5.784-3.013-3.013-4.935.942a3.581 3.581 0 0 1-.685.066zm9.748-15.832c-.368 0-.708.199-.888.52l-3.48 6.217a.947.947 0 0 1-.366.366l-6.217 3.479c-.28.157-.466.429-.51.747s.061.631.288.858l.706.706a1.008 1.008 0 0 0 .909.279l5.814-1.11a.962.962 0 0 1 .853.262l5.224 5.224a.945.945 0 0 1 .27.804.945.945 0 0 1-.479.701l-12.288 6.874c-.28.157-.466.429-.51.747-.044.318.061.631.288.858l2.497 2.497a1.01 1.01 0 0 0 .998.259l16.528-4.741a.948.948 0 0 1 .937.242l5.512 5.512c.718.718 2.005 1.238 3.061 1.238.605 0 1.097-.173 1.424-.499 1.034-1.034.292-3.453-.739-4.485l-5.512-5.512a.95.95 0 0 1-.242-.936l4.741-16.528a1.015 1.015 0 0 0-.258-.998l-2.496-2.497a1.017 1.017 0 0 0-1.605.222l-6.874 12.288a.954.954 0 0 1-1.505.209l-5.224-5.224a.953.953 0 0 1-.262-.852l1.11-5.814a1.016 1.016 0 0 0-.279-.909l-.706-.706a1.022 1.022 0 0 0-.72-.298zm-9.748 13.127a.948.948 0 0 1-.674-.279l-.706-.706a.945.945 0 0 1-.27-.804.947.947 0 0 1 .478-.701l6.217-3.479c.164-.092.299-.227.39-.39l3.48-6.217a.953.953 0 0 1 1.505-.208l.706.706a.953.953 0 0 1 .262.852l-1.11 5.814c-.063.331.041.67.279.909l5.224 5.224a1.019 1.019 0 0 0 1.605-.222l6.874-12.288a.954.954 0 0 1 1.505-.209l2.496 2.497a.95.95 0 0 1 .242.936l-4.741 16.528c-.102.355-.003.737.258.998l5.512 5.512c1.014 1.014 1.748 3.386.739 4.396-.314.314-.791.48-1.379.48-1.024 0-2.321-.524-3.016-1.22l-5.512-5.512a1.008 1.008 0 0 0-.998-.258l-16.528 4.741a.948.948 0 0 1-.937-.242l-2.497-2.497a.945.945 0 0 1-.27-.804.945.945 0 0 1 .479-.701l12.288-6.874c.28-.157.466-.429.51-.747a1.009 1.009 0 0 0-.288-.858l-5.224-5.224a1.023 1.023 0 0 0-.909-.279l-5.814 1.11c-.057.01-.117.016-.176.016zM169.995-150.413a4.25 4.25 0 0 1 1.681-1.028 5.173 5.173 0 0 1 1.633-.254c.873 0 1.808.195 2.704.565.882.364 1.659.867 2.247 1.456l4.795 4.795 15.554-4.461a3.685 3.685 0 0 1 3.626.938l2.496 2.496a3.7 3.7 0 0 1 .903 1.476c.169.525.219 1.092.143 1.639a3.72 3.72 0 0 1-.583 1.539c-.322.484-.761.89-1.27 1.175l-10.303 5.763 2.971 2.971 4.919-.939a3.683 3.683 0 0 1 3.301 1.015l.706.706c.412.412.725.923.903 1.476.169.525.219 1.092.143 1.639a3.712 3.712 0 0 1-.583 1.539c-.322.484-.761.89-1.27 1.175l-5.793 3.242-3.242 5.793a3.696 3.696 0 0 1-3.221 1.888c-.984 0-1.91-.384-2.607-1.081l-.706-.706a3.685 3.685 0 0 1-1.015-3.301l.939-4.918-2.971-2.971-5.763 10.303a3.693 3.693 0 0 1-3.221 1.888c-.984 0-1.91-.384-2.607-1.081l-2.496-2.497a3.692 3.692 0 0 1-.938-3.626l4.461-15.554-4.795-4.795c-.877-.877-1.575-2.208-1.868-3.561a6.118 6.118 0 0 1-.093-2.218c.148-.976.57-1.836 1.22-2.486zm2.652 6.353l5.512 5.512a.983.983 0 0 1 .25.967l-4.741 16.528a.983.983 0 0 0 .25.967l2.496 2.497a.98.98 0 0 0 1.554-.216l6.874-12.288a.98.98 0 0 1 1.554-.216l5.224 5.224c.23.23.332.56.271.88l-1.11 5.814c-.061.32.04.65.271.88l.706.706a.98.98 0 0 0 1.554-.216l3.48-6.217a.988.988 0 0 1 .378-.378l6.217-3.479a.984.984 0 0 0 .215-1.555l-.706-.706a.984.984 0 0 0-.881-.271l-5.814 1.11a.986.986 0 0 1-.881-.271l-5.224-5.224a.985.985 0 0 1 .215-1.555l12.288-6.874a.984.984 0 0 0 .215-1.555l-2.497-2.497a.985.985 0 0 0-.967-.25l-16.528 4.741a.985.985 0 0 1-.967-.25l-5.512-5.512c-.677-.677-1.955-1.229-3.038-1.229-.553 0-1.056.144-1.401.49-1.019 1.025-.28 3.42.743 4.443z"/><path d="M192.456-113.777a3.723 3.723 0 0 0 3.248-1.904l3.238-5.785 5.785-3.237a3.74 3.74 0 0 0 1.281-1.185c.308-.463.511-1 .588-1.552a3.746 3.746 0 0 0-.144-1.653 3.736 3.736 0 0 0-.911-1.488l-.706-.706a3.709 3.709 0 0 0-3.329-1.024l-4.902.936-2.93-2.93 10.266-5.743a3.722 3.722 0 0 0 1.725-4.39 3.736 3.736 0 0 0-.911-1.488l-2.496-2.496a3.714 3.714 0 0 0-3.658-.946l-15.536 4.456-4.782-4.782c-.592-.592-1.372-1.098-2.258-1.463-.9-.371-1.839-.568-2.716-.568-.582 0-1.134.086-1.643.255a4.274 4.274 0 0 0-1.693 1.036c-.655.655-1.08 1.521-1.23 2.504a6.133 6.133 0 0 0 .093 2.229c.294 1.359.995 2.696 1.876 3.577l4.782 4.782-4.456 15.536a3.722 3.722 0 0 0 .946 3.657l2.496 2.497a3.695 3.695 0 0 0 2.63 1.09c1.347 0 2.592-.73 3.249-1.905l5.743-10.266 2.93 2.93-.936 4.902a3.718 3.718 0 0 0 1.024 3.329l.706.706a3.702 3.702 0 0 0 2.631 1.089zm9.748-18.538a3.648 3.648 0 0 1 2.587 1.072l.706.706c.409.409.718.915.895 1.463a3.68 3.68 0 0 1 .142 1.625 3.674 3.674 0 0 1-.578 1.525 3.68 3.68 0 0 1-1.259 1.165l-5.8 3.246-.004.008-3.242 5.793a3.663 3.663 0 0 1-3.193 1.871c-.976 0-1.894-.38-2.585-1.071l-.706-.706a3.652 3.652 0 0 1-1.006-3.272l.942-4.935-.012-.012-3.001-3.001-.02.036-5.763 10.303a3.662 3.662 0 0 1-3.194 1.872c-.976 0-1.894-.38-2.585-1.071l-2.496-2.497a3.66 3.66 0 0 1-.93-3.595l4.466-15.571-4.809-4.809c-.873-.873-1.568-2.198-1.859-3.546a6.075 6.075 0 0 1-.092-2.206c.148-.97.567-1.824 1.212-2.469a4.22 4.22 0 0 1 1.669-1.021 5.133 5.133 0 0 1 1.623-.252c.869 0 1.8.195 2.692.563.878.362 1.651.863 2.237 1.449l4.809 4.809.018-.005 15.554-4.461a3.658 3.658 0 0 1 3.595.93l2.496 2.496c.409.409.719.915.895 1.463a3.667 3.667 0 0 1-.437 3.151 3.684 3.684 0 0 1-1.26 1.165l-10.339 5.784 3.013 3.013 4.935-.942c.223-.044.454-.066.684-.066zm-9.748 15.832c.368 0 .708-.199.888-.52l3.48-6.217a.947.947 0 0 1 .366-.366l6.217-3.479c.28-.157.466-.429.51-.747a1.009 1.009 0 0 0-.288-.858l-.706-.706a1.008 1.008 0 0 0-.909-.279l-5.814 1.11a.962.962 0 0 1-.853-.262l-5.224-5.224a.945.945 0 0 1-.27-.804.945.945 0 0 1 .479-.701l12.288-6.874c.28-.157.466-.429.51-.747a1.009 1.009 0 0 0-.288-.858l-2.497-2.497a1.01 1.01 0 0 0-.998-.259l-16.528 4.741a.948.948 0 0 1-.937-.242l-5.512-5.512c-.718-.718-2.005-1.238-3.061-1.238-.605 0-1.097.173-1.424.499-1.034 1.034-.292 3.453.739 4.485l5.512 5.512a.95.95 0 0 1 .242.936l-4.741 16.528c-.102.355-.003.737.258.998l2.496 2.497a1.017 1.017 0 0 0 1.605-.222l6.874-12.288a.954.954 0 0 1 1.505-.209l5.224 5.224a.953.953 0 0 1 .262.852l-1.11 5.814c-.063.331.041.671.279.909l.706.706c.195.193.449.298.72.298zm9.748-13.127c.254 0 .494.099.674.279l.706.706a.945.945 0 0 1 .27.804.947.947 0 0 1-.478.701l-6.217 3.479a1.015 1.015 0 0 0-.39.39l-3.48 6.217a.953.953 0 0 1-1.505.208l-.706-.706a.953.953 0 0 1-.262-.852l1.11-5.814a1.017 1.017 0 0 0-.279-.909l-5.224-5.224a1.017 1.017 0 0 0-1.605.222l-6.874 12.288a.954.954 0 0 1-1.505.209l-2.496-2.497a.95.95 0 0 1-.242-.936l4.741-16.528a1.015 1.015 0 0 0-.258-.998l-5.512-5.512c-1.014-1.014-1.748-3.386-.739-4.396.314-.314.791-.48 1.379-.48 1.024 0 2.321.525 3.016 1.22l5.512 5.512a1.008 1.008 0 0 0 .998.258l16.528-4.741a.948.948 0 0 1 .937.242l2.497 2.497a.945.945 0 0 1 .27.804.945.945 0 0 1-.479.701l-12.288 6.874c-.28.157-.466.429-.51.747-.044.318.061.631.288.858l5.224 5.224a1.023 1.023 0 0 0 .909.279l5.814-1.11a1.01 1.01 0 0 1 .176-.016z"/><path d="M-.149 118.904c0-5.401-4.379-9.78-9.78-9.78s-9.78 4.379-9.78 9.78 4.379 9.78 9.78 9.78 9.78-4.378 9.78-9.78zM200.306 2.018c0-5.401-4.379-9.78-9.78-9.78s-9.78 4.379-9.78 9.78 4.379 9.78 9.78 9.78 9.78-4.379 9.78-9.78zM-200.895 4.238c0-5.401-4.379-9.78-9.78-9.78s-9.78 4.379-9.78 9.78 4.379 9.78 9.78 9.78 9.78-4.378 9.78-9.78zM-5.07-117.532c0-5.401-4.379-9.78-9.78-9.78s-9.78 4.379-9.78 9.78 4.379 9.78 9.78 9.78 9.78-4.379 9.78-9.78z" fill="none" stroke="#000" stroke-width="3" stroke-miterlimit="10"/><path d="M369.835 22.378a4.25 4.25 0 0 1-1.681 1.028 5.173 5.173 0 0 1-1.633.254c-.873 0-1.808-.196-2.704-.565-.882-.364-1.659-.867-2.247-1.456l-4.795-4.795-15.554 4.461a3.685 3.685 0 0 1-3.626-.938l-2.496-2.496a3.7 3.7 0 0 1-.903-1.476 3.714 3.714 0 0 1-.143-1.639 3.72 3.72 0 0 1 .583-1.539c.322-.484.761-.89 1.27-1.175l10.303-5.763-2.971-2.971-4.919.939a3.683 3.683 0 0 1-3.301-1.015l-.706-.706a3.704 3.704 0 0 1-.903-1.476 3.714 3.714 0 0 1-.143-1.639c.076-.547.277-1.08.583-1.539.322-.484.761-.89 1.27-1.175l5.793-3.242 3.242-5.793a3.696 3.696 0 0 1 3.221-1.888c.984 0 1.91.384 2.607 1.081l.706.706a3.685 3.685 0 0 1 1.015 3.301l-.939 4.918 2.971 2.971 5.763-10.303a3.693 3.693 0 0 1 3.221-1.888c.984 0 1.91.384 2.607 1.081l2.496 2.497a3.692 3.692 0 0 1 .938 3.626l-4.461 15.554 4.795 4.795c.877.877 1.575 2.208 1.868 3.561.168.775.199 1.521.093 2.218-.147.976-.569 1.836-1.22 2.486zm-2.651-6.353l-5.512-5.512a.983.983 0 0 1-.25-.967l4.741-16.528a.983.983 0 0 0-.25-.967l-2.496-2.497a.98.98 0 0 0-1.554.216l-6.874 12.288a.98.98 0 0 1-1.554.216l-5.224-5.224a.985.985 0 0 1-.271-.88l1.11-5.814a.982.982 0 0 0-.271-.88l-.706-.706a.98.98 0 0 0-1.554.216l-3.48 6.217a.988.988 0 0 1-.378.378L336.444-.94a.984.984 0 0 0-.215 1.555l.706.706a.984.984 0 0 0 .881.271l5.814-1.11a.986.986 0 0 1 .881.271l5.224 5.224a.985.985 0 0 1-.215 1.555l-12.288 6.874a.984.984 0 0 0-.215 1.555l2.496 2.497a.985.985 0 0 0 .967.25l16.528-4.741a.985.985 0 0 1 .967.25l5.512 5.512c.677.677 1.955 1.229 3.038 1.229.553 0 1.056-.144 1.401-.49 1.019-1.025.28-3.42-.742-4.443z"/><path d="M347.375-14.257a3.723 3.723 0 0 0-3.248 1.904l-3.238 5.785-5.785 3.237a3.74 3.74 0 0 0-1.281 1.185c-.308.463-.511 1-.588 1.552a3.746 3.746 0 0 0 .144 1.653c.18.558.495 1.072.911 1.488l.706.706a3.709 3.709 0 0 0 3.329 1.024l4.902-.936 2.93 2.93-10.266 5.743a3.722 3.722 0 0 0-1.725 4.39c.18.558.495 1.072.911 1.488l2.496 2.496a3.71 3.71 0 0 0 3.658.946l15.536-4.456 4.782 4.782c.592.592 1.372 1.098 2.258 1.463.9.371 1.839.568 2.716.568.582 0 1.134-.086 1.643-.255a4.274 4.274 0 0 0 1.693-1.036c.655-.655 1.08-1.521 1.23-2.504a6.133 6.133 0 0 0-.093-2.229c-.294-1.359-.995-2.696-1.876-3.577l-4.782-4.782 4.456-15.536c.373-1.3.01-2.701-.946-3.657l-2.496-2.497a3.695 3.695 0 0 0-2.63-1.09c-1.347 0-2.592.73-3.249 1.905L353.73-1.301l-2.93-2.93.936-4.902a3.718 3.718 0 0 0-1.024-3.329l-.706-.706a3.702 3.702 0 0 0-2.631-1.089zM337.627 4.28a3.648 3.648 0 0 1-2.587-1.072l-.706-.706a3.665 3.665 0 0 1-1.037-3.088c.075-.543.275-1.07.578-1.525a3.68 3.68 0 0 1 1.259-1.165l5.8-3.246.004-.008 3.242-5.793a3.663 3.663 0 0 1 3.193-1.871c.976 0 1.894.38 2.585 1.071l.706.706a3.655 3.655 0 0 1 1.007 3.272l-.941 4.935.012.012 3.001 3.001.02-.036 5.763-10.303a3.662 3.662 0 0 1 3.194-1.872c.976 0 1.894.38 2.585 1.071l2.496 2.497a3.66 3.66 0 0 1 .93 3.595l-4.466 15.571 4.809 4.809c.873.873 1.568 2.198 1.859 3.546.167.771.198 1.514.092 2.206-.148.97-.567 1.824-1.212 2.469a4.22 4.22 0 0 1-1.669 1.021 5.133 5.133 0 0 1-1.623.252c-.869 0-1.8-.195-2.692-.563-.878-.362-1.651-.863-2.237-1.449l-4.809-4.809-.018.005-15.554 4.461a3.658 3.658 0 0 1-3.595-.93l-2.496-2.496a3.665 3.665 0 0 1-.895-1.463 3.667 3.667 0 0 1 .437-3.151 3.684 3.684 0 0 1 1.26-1.165l10.339-5.784-3.013-3.013-4.935.942a3.584 3.584 0 0 1-.686.066zm9.748-15.832c-.368 0-.708.199-.888.52l-3.48 6.217a.947.947 0 0 1-.366.366L336.424-.97c-.28.157-.466.429-.51.747-.044.318.061.631.288.858l.706.706a1.008 1.008 0 0 0 .909.279l5.814-1.11a.962.962 0 0 1 .853.262l5.224 5.224a.945.945 0 0 1 .27.804.945.945 0 0 1-.479.701l-12.288 6.874c-.28.157-.466.429-.51.747-.044.318.061.631.288.858l2.497 2.497a1.01 1.01 0 0 0 .998.259l16.528-4.741a.948.948 0 0 1 .937.242l5.512 5.512c.718.718 2.005 1.238 3.061 1.238.605 0 1.097-.173 1.424-.499 1.034-1.034.292-3.453-.739-4.485l-5.512-5.512a.95.95 0 0 1-.242-.936l4.741-16.528a1.015 1.015 0 0 0-.258-.998l-2.496-2.497a1.017 1.017 0 0 0-1.605.222l-6.874 12.288a.954.954 0 0 1-1.505.209l-5.224-5.224a.953.953 0 0 1-.262-.852l1.11-5.814a1.016 1.016 0 0 0-.279-.909l-.706-.706a1.02 1.02 0 0 0-.72-.298zm-9.748 13.127a.948.948 0 0 1-.674-.279l-.706-.706a.945.945 0 0 1-.27-.804.947.947 0 0 1 .478-.701l6.217-3.479c.164-.092.299-.227.39-.39l3.48-6.217a.953.953 0 0 1 1.505-.208l.706.706a.953.953 0 0 1 .262.852l-1.11 5.814c-.063.331.041.67.279.909l5.224 5.224a1.019 1.019 0 0 0 1.605-.222l6.874-12.288a.954.954 0 0 1 1.505-.209l2.496 2.497a.95.95 0 0 1 .242.936l-4.741 16.528c-.102.355-.003.737.258.998l5.512 5.512c1.014 1.014 1.748 3.386.739 4.396-.314.314-.791.48-1.379.48-1.024 0-2.321-.524-3.016-1.22l-5.512-5.512a1.008 1.008 0 0 0-.998-.258l-16.528 4.741a.948.948 0 0 1-.937-.242l-2.497-2.497a.945.945 0 0 1-.27-.804.945.945 0 0 1 .479-.701l12.288-6.874c.28-.157.466-.429.51-.747a1.009 1.009 0 0 0-.288-.858L344.526.728a1.023 1.023 0 0 0-.908-.279l-5.814 1.11c-.057.01-.117.016-.177.016z"/><path d="M366.647 119.169c0-5.401-4.379-9.78-9.78-9.78s-9.78 4.379-9.78 9.78 4.379 9.78 9.78 9.78 9.78-4.378 9.78-9.78zM361.725-114.267c0-5.401-4.379-9.78-9.78-9.78s-9.78 4.379-9.78 9.78 4.379 9.78 9.78 9.78a9.78 9.78 0 0 0 9.78-9.78z" fill="none" stroke="#000" stroke-width="3" stroke-miterlimit="10"/><g><g fill="none" stroke="#000" stroke-width="3" stroke-miterlimit="10"><path d="M-184.724-107.752a152.54 152.54 0 0 0 4.324 4.153"/><path d="M-170.828-95.357c29.992 24.182 67.565 41.067 67.565 41.067s36.39 12.738 59.783 27.982" stroke-dasharray="12.6398,12.6398"/><path d="M-38.286-22.715a73.97 73.97 0 0 1 4.691 3.749"/></g></g><g><g fill="none" stroke="#000" stroke-width="3" stroke-miterlimit="10"><path d="M12.622 25.485a152.54 152.54 0 0 0 4.324 4.153"/><path d="M26.518 37.879C56.51 62.061 94.083 78.946 94.083 78.946s36.389 12.738 59.783 27.982" stroke-dasharray="12.6398,12.6398"/><path d="M159.06 110.521a73.97 73.97 0 0 1 4.691 3.749"/></g></g><g fill="none" stroke="#000" stroke-width="3" stroke-miterlimit="10"><path d="M-93.141 81.33h-1.807c-.784 0-1.351.748-1.14 1.502l1.276 4.57a1.184 1.184 0 0 1-1.14 1.502h-20.386a1.184 1.184 0 0 1-1.141-1.501l1.273-4.572a1.183 1.183 0 0 0-1.141-1.501h-2.274a1.184 1.184 0 0 1-1.116-1.578l4.515-12.78a1.184 1.184 0 0 1 1.119-.79 1.184 1.184 0 0 0 1.186-1.184V49.346c0-.654.53-1.184 1.184-1.184h12.5c.654 0 1.184.53 1.184 1.184v15.686c0 .653.529 1.183 1.182 1.184h.212c.501.001.946.317 1.114.788l4.517 12.745a1.186 1.186 0 0 1-1.117 1.581zM-111.192 97.31h9.092M-106.646 97.31v-8.406"/></g><g fill="none" stroke="#000" stroke-width="3" stroke-miterlimit="10"><path d="M101.426-61.244H99.62c-.784 0-1.351.748-1.14 1.502l1.276 4.57a1.184 1.184 0 0 1-1.14 1.502H78.23a1.184 1.184 0 0 1-1.141-1.501l1.273-4.572a1.183 1.183 0 0 0-1.141-1.501h-2.274a1.184 1.184 0 0 1-1.116-1.578l4.515-12.78a1.184 1.184 0 0 1 1.119-.79 1.184 1.184 0 0 0 1.186-1.184v-15.652c0-.654.53-1.184 1.184-1.184h12.5c.654 0 1.184.53 1.184 1.184v15.686c0 .653.529 1.183 1.182 1.184h.212c.501.001.946.317 1.114.788l4.517 12.745c.271.772-.3 1.581-1.118 1.581zM83.375-45.264h9.092M87.921-45.264v-8.406"/></g></symbol><use xlink:href="#a" width="600.798" height="307.456" x="-229.648" y="-155.684" transform="matrix(.7031 0 0 -.7031 174.985 110.92)" overflow="visible" opacity=".05"/></svg>