<?xml version="1.0" encoding="iso-8859-1"?>
<!-- Generator: Adobe Illustrator 19.1.0, SVG Export Plug-In . SVG Version: 6.00 Build 0)  -->
<svg version="1.1" id="&#x421;&#x43B;&#x43E;&#x439;_1"
	 xmlns="http://www.w3.org/2000/svg" xmlns:xlink="http://www.w3.org/1999/xlink" x="0px" y="0px" viewBox="0 0 944.326 1055.189"
	 style="enable-background:new 0 0 944.326 1055.189;" xml:space="preserve">
<symbol  id="&#x41D;&#x43E;&#x432;&#x44B;&#x439;_&#x441;&#x438;&#x43C;&#x432;&#x43E;&#x43B;" viewBox="-229.648 -155.684 600.798 307.456">
	<g>
		<g>
			<path d="M-186.038,148.138c-0.466,0.466-1.032,0.812-1.681,1.028c-0.506,0.168-1.055,0.254-1.633,0.254
				c-0.873,0-1.808-0.195-2.704-0.565c-0.882-0.364-1.659-0.867-2.247-1.456l-4.795-4.795l-15.554,4.461
				c-0.331,0.095-0.673,0.143-1.017,0.143c-0.484,0-0.955-0.093-1.403-0.277c-0.454-0.186-0.859-0.457-1.206-0.804l-2.496-2.496
				c-0.413-0.413-0.725-0.923-0.903-1.476c-0.169-0.525-0.219-1.092-0.143-1.639c0.076-0.548,0.278-1.08,0.583-1.539
				c0.322-0.484,0.761-0.89,1.27-1.175l10.303-5.763l-2.971-2.971l-4.919,0.939c-0.228,0.044-0.461,0.065-0.692,0.065
				c-0.485,0-0.958-0.094-1.406-0.278c-0.452-0.186-0.857-0.456-1.203-0.802l-0.706-0.706c-0.412-0.412-0.725-0.923-0.903-1.476
				c-0.169-0.525-0.219-1.092-0.143-1.639c0.076-0.547,0.277-1.08,0.583-1.539c0.322-0.484,0.761-0.89,1.27-1.175l5.793-3.242
				l3.242-5.793c0.652-1.164,1.886-1.888,3.221-1.888c0.984,0,1.91,0.384,2.607,1.081l0.706,0.706
				c0.865,0.865,1.245,2.099,1.015,3.301l-0.939,4.918l2.971,2.971l5.763-10.303c0.651-1.165,1.886-1.888,3.221-1.888
				c0.984,0,1.91,0.384,2.607,1.081l2.496,2.497c0.948,0.948,1.307,2.337,0.938,3.626l-4.461,15.554l4.795,4.795
				c0.877,0.877,1.575,2.208,1.868,3.561c0.168,0.775,0.199,1.521,0.093,2.218C-184.966,146.628-185.388,147.487-186.038,148.138z
				 M-188.69,141.784l-5.512-5.512c-0.253-0.253-0.349-0.623-0.25-0.967l4.741-16.528c0.099-0.344,0.003-0.714-0.25-0.967
				l-2.496-2.497c-0.195-0.195-0.446-0.288-0.694-0.288c-0.34,0-0.676,0.175-0.86,0.504l-6.874,12.288
				c-0.184,0.329-0.52,0.504-0.86,0.504c-0.249,0-0.5-0.093-0.694-0.288l-5.224-5.224c-0.23-0.23-0.332-0.56-0.271-0.88l1.11-5.814
				c0.061-0.32-0.04-0.65-0.271-0.88l-0.706-0.706c-0.195-0.195-0.446-0.288-0.694-0.288c-0.34,0-0.676,0.175-0.86,0.504
				l-3.48,6.217c-0.089,0.159-0.22,0.289-0.378,0.378l-6.217,3.479c-0.569,0.319-0.677,1.093-0.215,1.555l0.706,0.706
				c0.186,0.186,0.437,0.288,0.696,0.288c0.061,0,0.123-0.006,0.185-0.017l5.814-1.11c0.061-0.012,0.123-0.017,0.185-0.017
				c0.258,0,0.51,0.102,0.696,0.288l5.224,5.224c0.461,0.461,0.354,1.236-0.215,1.555l-12.288,6.874
				c-0.57,0.319-0.677,1.093-0.215,1.555l2.497,2.497c0.187,0.187,0.439,0.288,0.696,0.288c0.09,0,0.182-0.012,0.271-0.038
				l16.528-4.741c0.089-0.026,0.181-0.038,0.271-0.038c0.257,0,0.509,0.101,0.696,0.288l5.512,5.512
				c0.677,0.677,1.955,1.229,3.038,1.229c0.553,0,1.056-0.144,1.401-0.49C-186.929,145.202-187.668,142.807-188.69,141.784z"/>
			<path d="M-208.499,111.502c-1.347,0-2.591,0.729-3.248,1.904l-3.238,5.785l-5.785,3.237c-0.513,0.287-0.956,0.697-1.281,1.185
				c-0.308,0.463-0.511,1-0.588,1.552c-0.076,0.552-0.027,1.124,0.144,1.653c0.18,0.558,0.495,1.072,0.911,1.488l0.706,0.706
				c0.349,0.349,0.757,0.621,1.213,0.809c0.452,0.186,0.929,0.281,1.418,0.281c0.234,0,0.469-0.022,0.698-0.066l4.902-0.936
				l2.93,2.93l-10.266,5.743c-0.514,0.287-0.957,0.697-1.281,1.185c-0.308,0.463-0.512,1-0.588,1.552
				c-0.077,0.552-0.027,1.124,0.144,1.653c0.18,0.558,0.495,1.072,0.911,1.488l2.496,2.496c0.35,0.35,0.759,0.622,1.217,0.811
				c0.451,0.185,0.927,0.279,1.415,0.279c0.347,0,0.692-0.049,1.026-0.144l15.536-4.456l4.782,4.782
				c0.592,0.592,1.372,1.098,2.258,1.463c0.9,0.371,1.839,0.568,2.716,0.568c0.582,0,1.134-0.086,1.643-0.255
				c0.654-0.218,1.224-0.566,1.693-1.036c0.655-0.655,1.08-1.521,1.23-2.504c0.107-0.701,0.076-1.451-0.093-2.229
				c-0.294-1.359-0.995-2.696-1.876-3.577l-4.782-4.782l4.456-15.536c0.373-1.3,0.01-2.701-0.946-3.657l-2.496-2.496
				c-0.703-0.703-1.637-1.09-2.63-1.09c-1.347,0-2.592,0.73-3.249,1.905l-5.743,10.266l-2.93-2.93l0.936-4.902
				c0.231-1.212-0.151-2.456-1.024-3.329l-0.706-0.706C-206.572,111.889-207.506,111.502-208.499,111.502z M-218.247,130.039
				c-0.48,0-0.949-0.093-1.394-0.276c-0.448-0.185-0.85-0.452-1.193-0.796l-0.706-0.706c-0.409-0.409-0.718-0.915-0.895-1.463
				c-0.168-0.52-0.217-1.082-0.142-1.625c0.075-0.543,0.275-1.07,0.578-1.525c0.319-0.479,0.754-0.882,1.259-1.165l5.8-3.246
				l0.004-0.008l3.242-5.793c0.646-1.154,1.87-1.871,3.193-1.871c0.976,0,1.894,0.38,2.585,1.071l0.706,0.706
				c0.858,0.858,1.234,2.081,1.007,3.272l-0.942,4.935l0.012,0.012l3.001,3.001l0.02-0.036l5.763-10.303
				c0.646-1.155,1.87-1.872,3.194-1.872c0.976,0,1.894,0.38,2.585,1.071l2.496,2.497c0.94,0.94,1.296,2.317,0.93,3.595
				l-4.466,15.571l4.809,4.809c0.873,0.873,1.568,2.198,1.859,3.546c0.167,0.771,0.198,1.514,0.092,2.206
				c-0.148,0.97-0.567,1.824-1.212,2.469c-0.463,0.463-1.024,0.806-1.669,1.021c-0.502,0.167-1.048,0.252-1.623,0.252
				c-0.869,0-1.8-0.195-2.692-0.563c-0.878-0.362-1.651-0.863-2.237-1.449l-4.809-4.809l-0.018,0.005l-15.554,4.461
				c-0.328,0.094-0.667,0.142-1.008,0.142c-0.479,0-0.947-0.092-1.391-0.275c-0.45-0.185-0.852-0.453-1.196-0.797l-2.496-2.496
				c-0.409-0.409-0.719-0.915-0.895-1.463c-0.168-0.521-0.217-1.083-0.141-1.625s0.275-1.07,0.578-1.526
				c0.319-0.479,0.755-0.882,1.26-1.165l10.339-5.784l-3.013-3.013l-4.935,0.942C-217.786,130.017-218.017,130.039-218.247,130.039z
				 M-208.499,114.207c-0.368,0-0.708,0.199-0.888,0.52l-3.48,6.217c-0.086,0.154-0.212,0.28-0.366,0.366l-6.217,3.479
				c-0.28,0.157-0.466,0.429-0.51,0.747c-0.044,0.318,0.061,0.631,0.288,0.858l0.706,0.706c0.192,0.192,0.447,0.297,0.718,0.297
				c0.064,0,0.128-0.006,0.191-0.018l5.814-1.11c0.059-0.011,0.119-0.017,0.179-0.017c0.251,0,0.496,0.102,0.674,0.279l5.224,5.224
				c0.213,0.213,0.311,0.506,0.27,0.804c-0.041,0.298-0.216,0.554-0.479,0.701l-12.288,6.874c-0.28,0.157-0.466,0.429-0.51,0.747
				c-0.044,0.318,0.061,0.631,0.288,0.858l2.497,2.497c0.192,0.192,0.447,0.298,0.718,0.298c0.095,0,0.189-0.013,0.28-0.039
				l16.528-4.741c0.085-0.025,0.174-0.037,0.263-0.037c0.254,0,0.494,0.099,0.674,0.279l5.512,5.512
				c0.718,0.718,2.005,1.238,3.061,1.238c0.605,0,1.097-0.173,1.424-0.499c1.034-1.034,0.292-3.453-0.739-4.485l-5.512-5.512
				c-0.245-0.245-0.338-0.603-0.242-0.936l4.741-16.528c0.102-0.355,0.003-0.737-0.258-0.998l-2.496-2.497
				c-0.192-0.192-0.446-0.298-0.717-0.298c-0.368,0-0.709,0.199-0.888,0.52l-6.874,12.288c-0.168,0.301-0.487,0.488-0.833,0.488
				c-0.253,0-0.492-0.099-0.672-0.279l-5.224-5.224c-0.223-0.223-0.321-0.542-0.262-0.852l1.11-5.814
				c0.063-0.331-0.041-0.671-0.279-0.909l-0.706-0.706C-207.974,114.313-208.228,114.207-208.499,114.207z M-218.247,127.334
				c-0.254,0-0.494-0.099-0.674-0.279l-0.706-0.706c-0.213-0.213-0.311-0.506-0.27-0.804c0.041-0.298,0.216-0.554,0.478-0.701
				l6.217-3.479c0.164-0.092,0.299-0.227,0.39-0.39l3.48-6.217c0.168-0.301,0.487-0.487,0.833-0.487
				c0.253,0,0.492,0.099,0.672,0.279l0.706,0.706c0.223,0.223,0.321,0.542,0.262,0.852l-1.11,5.814
				c-0.063,0.331,0.041,0.67,0.279,0.909l5.224,5.224c0.192,0.192,0.446,0.298,0.717,0.298c0.368,0,0.709-0.199,0.888-0.52
				l6.874-12.288c0.168-0.301,0.487-0.488,0.833-0.488c0.254,0,0.492,0.099,0.672,0.279l2.496,2.497
				c0.245,0.245,0.338,0.603,0.242,0.936l-4.741,16.528c-0.102,0.355-0.003,0.737,0.258,0.998l5.512,5.512
				c1.014,1.014,1.748,3.386,0.739,4.396c-0.314,0.314-0.791,0.48-1.379,0.48c-1.024,0-2.321-0.524-3.016-1.22l-5.512-5.512
				c-0.192-0.192-0.447-0.297-0.718-0.297c-0.095,0-0.189,0.013-0.28,0.039l-16.528,4.741c-0.085,0.025-0.174,0.037-0.263,0.037
				c-0.254,0-0.494-0.099-0.674-0.279l-2.497-2.497c-0.213-0.213-0.311-0.506-0.27-0.804c0.041-0.298,0.216-0.554,0.479-0.701
				l12.288-6.874c0.28-0.157,0.466-0.429,0.51-0.747c0.044-0.318-0.061-0.631-0.288-0.858l-5.224-5.224
				c-0.189-0.189-0.451-0.297-0.718-0.297c-0.064,0-0.128,0.006-0.191,0.018l-5.814,1.11
				C-218.127,127.328-218.187,127.334-218.247,127.334z"/>
		</g>
	</g>
	<g>
		<g>
			<path d="M3.04,19.113c-0.466,0.466-1.032,0.812-1.681,1.028c-0.506,0.168-1.055,0.254-1.633,0.254
				c-0.873,0-1.808-0.196-2.704-0.565c-0.882-0.364-1.659-0.867-2.247-1.456l-4.795-4.795l-15.554,4.461
				c-0.331,0.095-0.673,0.143-1.017,0.143c-0.484,0-0.955-0.093-1.403-0.277c-0.454-0.186-0.859-0.457-1.206-0.804l-2.496-2.496
				c-0.413-0.413-0.725-0.923-0.903-1.476c-0.169-0.525-0.219-1.092-0.143-1.639c0.076-0.548,0.278-1.08,0.583-1.539
				c0.322-0.484,0.761-0.89,1.27-1.175l10.303-5.763l-2.971-2.971l-4.919,0.939c-0.228,0.044-0.461,0.065-0.692,0.065
				c-0.485,0-0.958-0.094-1.406-0.278c-0.452-0.186-0.857-0.456-1.203-0.802l-0.706-0.706c-0.412-0.412-0.725-0.923-0.903-1.476
				c-0.169-0.525-0.219-1.092-0.143-1.639c0.076-0.547,0.277-1.08,0.583-1.539c0.322-0.484,0.761-0.89,1.27-1.175l5.793-3.242
				l3.242-5.793c0.652-1.164,1.886-1.888,3.221-1.888c0.984,0,1.91,0.384,2.607,1.081l0.706,0.706
				c0.865,0.865,1.244,2.099,1.015,3.301l-0.939,4.918l2.971,2.971l5.763-10.303c0.651-1.165,1.886-1.888,3.221-1.888
				c0.984,0,1.91,0.384,2.607,1.081l2.496,2.497c0.948,0.948,1.307,2.337,0.938,3.626L-2.494,6.052l4.795,4.795
				c0.877,0.877,1.575,2.208,1.868,3.561c0.168,0.775,0.199,1.521,0.093,2.218C4.113,17.603,3.69,18.463,3.04,19.113z M0.388,12.76
				l-5.512-5.512c-0.253-0.253-0.349-0.623-0.25-0.967l4.741-16.528c0.099-0.344,0.003-0.714-0.25-0.967l-2.496-2.497
				C-3.575-13.906-3.826-14-4.075-14c-0.34,0-0.676,0.175-0.86,0.504l-6.874,12.288c-0.184,0.329-0.52,0.504-0.86,0.504
				c-0.249,0-0.5-0.093-0.694-0.288l-5.224-5.224c-0.23-0.23-0.332-0.56-0.271-0.88l1.11-5.814c0.061-0.32-0.04-0.65-0.271-0.88
				l-0.706-0.706c-0.195-0.195-0.446-0.288-0.694-0.288c-0.34,0-0.676,0.175-0.86,0.504l-3.48,6.217
				c-0.089,0.159-0.22,0.289-0.378,0.378l-6.217,3.479c-0.569,0.319-0.677,1.093-0.215,1.555l0.706,0.706
				c0.186,0.186,0.437,0.288,0.696,0.288c0.061,0,0.123-0.006,0.185-0.017l5.814-1.11c0.061-0.012,0.123-0.017,0.185-0.017
				c0.258,0,0.51,0.102,0.696,0.288l5.224,5.224c0.461,0.461,0.354,1.236-0.215,1.555l-12.288,6.874
				c-0.57,0.319-0.677,1.093-0.215,1.555l2.497,2.497c0.187,0.187,0.439,0.288,0.696,0.288c0.09,0,0.182-0.013,0.271-0.038
				l16.528-4.741c0.089-0.026,0.181-0.038,0.271-0.038c0.257,0,0.509,0.101,0.696,0.288l5.512,5.512
				c0.677,0.677,1.955,1.229,3.038,1.229c0.553,0,1.056-0.144,1.401-0.49C2.15,16.178,1.411,13.783,0.388,12.76z"/>
			<path d="M-19.42-17.522c-1.347,0-2.591,0.729-3.248,1.904l-3.238,5.785l-5.785,3.237c-0.513,0.287-0.956,0.697-1.281,1.185
				c-0.308,0.463-0.511,1-0.588,1.552c-0.076,0.552-0.027,1.124,0.144,1.653c0.18,0.558,0.495,1.072,0.911,1.488l0.706,0.706
				c0.349,0.349,0.757,0.621,1.213,0.809c0.452,0.186,0.929,0.281,1.418,0.281c0.234,0,0.469-0.022,0.698-0.066l4.902-0.936
				l2.93,2.93l-10.266,5.743c-0.514,0.287-0.957,0.697-1.281,1.185c-0.308,0.463-0.512,1-0.588,1.552
				c-0.077,0.552-0.027,1.124,0.144,1.653c0.18,0.558,0.495,1.072,0.911,1.488l2.496,2.496c0.35,0.35,0.759,0.623,1.217,0.811
				c0.451,0.185,0.927,0.279,1.415,0.279c0.347,0,0.692-0.049,1.026-0.144l15.536-4.456l4.782,4.782
				c0.592,0.592,1.372,1.098,2.258,1.463c0.9,0.371,1.839,0.568,2.716,0.568c0.582,0,1.134-0.086,1.643-0.255
				c0.654-0.218,1.224-0.566,1.693-1.036c0.655-0.655,1.08-1.521,1.23-2.504c0.107-0.701,0.076-1.451-0.093-2.229
				c-0.294-1.359-0.995-2.696-1.876-3.577l-4.782-4.782L1.997-9.493c0.373-1.3,0.01-2.701-0.946-3.657l-2.496-2.497
				c-0.703-0.703-1.637-1.09-2.63-1.09c-1.347,0-2.592,0.73-3.249,1.905l-5.743,10.266l-2.93-2.93l0.936-4.902
				c0.231-1.212-0.151-2.456-1.024-3.329l-0.706-0.706C-17.493-17.135-18.427-17.522-19.42-17.522z M-29.168,1.015
				c-0.48,0-0.949-0.093-1.394-0.276c-0.448-0.185-0.85-0.452-1.193-0.796l-0.706-0.706c-0.409-0.409-0.718-0.915-0.895-1.463
				c-0.168-0.52-0.217-1.082-0.142-1.625c0.075-0.543,0.275-1.07,0.578-1.525c0.319-0.479,0.754-0.882,1.259-1.165l5.8-3.246
				l0.004-0.008l3.242-5.793c0.646-1.154,1.87-1.871,3.193-1.871c0.976,0,1.894,0.38,2.585,1.071l0.706,0.706
				c0.858,0.858,1.234,2.081,1.006,3.272l-0.942,4.935l0.012,0.012l3.001,3.001l0.02-0.036l5.763-10.303
				c0.646-1.155,1.87-1.872,3.194-1.872c0.976,0,1.894,0.38,2.585,1.071l2.496,2.497c0.94,0.94,1.296,2.317,0.93,3.595L-2.53,6.061
				l4.809,4.809c0.873,0.873,1.568,2.198,1.859,3.546c0.167,0.771,0.198,1.514,0.092,2.206c-0.148,0.97-0.567,1.824-1.212,2.469
				c-0.463,0.463-1.024,0.806-1.669,1.021c-0.502,0.167-1.048,0.252-1.623,0.252c-0.869,0-1.8-0.195-2.692-0.563
				c-0.878-0.362-1.651-0.863-2.237-1.449l-4.809-4.809l-0.018,0.005l-15.554,4.461c-0.328,0.094-0.667,0.142-1.008,0.142
				c-0.479,0-0.947-0.092-1.391-0.275c-0.45-0.185-0.852-0.453-1.196-0.797l-2.496-2.496c-0.409-0.409-0.719-0.915-0.895-1.463
				c-0.168-0.521-0.217-1.083-0.141-1.625c0.075-0.543,0.275-1.07,0.578-1.526c0.319-0.479,0.755-0.882,1.26-1.165l10.339-5.784
				l-3.013-3.013l-4.935,0.942C-28.707,0.993-28.938,1.015-29.168,1.015z M-19.42-14.817c-0.368,0-0.708,0.199-0.888,0.52
				l-3.48,6.217C-23.874-7.927-24-7.8-24.154-7.714l-6.217,3.479c-0.28,0.157-0.466,0.429-0.51,0.747s0.061,0.631,0.288,0.858
				l0.706,0.706c0.192,0.192,0.447,0.297,0.718,0.297c0.064,0,0.128-0.006,0.191-0.018l5.814-1.11
				c0.059-0.011,0.119-0.017,0.179-0.017c0.251,0,0.496,0.102,0.674,0.279l5.224,5.224c0.213,0.213,0.311,0.506,0.27,0.804
				s-0.216,0.554-0.479,0.701l-12.288,6.874c-0.28,0.157-0.466,0.429-0.51,0.747c-0.044,0.318,0.061,0.631,0.288,0.858l2.497,2.497
				c0.192,0.192,0.447,0.298,0.718,0.298c0.095,0,0.189-0.013,0.28-0.039l16.528-4.741c0.086-0.025,0.174-0.037,0.263-0.037
				c0.254,0,0.494,0.099,0.674,0.279l5.512,5.512c0.718,0.718,2.005,1.238,3.061,1.238c0.605,0,1.097-0.173,1.424-0.499
				c1.034-1.034,0.292-3.453-0.739-4.485l-5.512-5.512c-0.245-0.245-0.338-0.603-0.242-0.936l4.741-16.528
				c0.102-0.355,0.003-0.737-0.258-0.998l-2.496-2.497c-0.192-0.192-0.446-0.298-0.717-0.298c-0.368,0-0.709,0.199-0.888,0.52
				l-6.874,12.288c-0.168,0.301-0.487,0.488-0.833,0.488c-0.253,0-0.492-0.099-0.672-0.279l-5.224-5.224
				c-0.223-0.223-0.321-0.542-0.262-0.852l1.11-5.814c0.063-0.331-0.041-0.671-0.279-0.909l-0.706-0.706
				C-18.895-14.711-19.15-14.817-19.42-14.817z M-29.168-1.69c-0.254,0-0.494-0.099-0.674-0.279l-0.706-0.706
				c-0.213-0.213-0.311-0.506-0.27-0.804c0.041-0.298,0.216-0.554,0.478-0.701l6.217-3.479c0.164-0.092,0.299-0.227,0.39-0.39
				l3.48-6.217c0.168-0.301,0.487-0.487,0.833-0.487c0.253,0,0.492,0.099,0.672,0.279l0.706,0.706
				c0.223,0.223,0.321,0.542,0.262,0.852l-1.11,5.814c-0.063,0.331,0.041,0.67,0.279,0.909l5.224,5.224
				c0.192,0.192,0.446,0.298,0.717,0.298c0.368,0,0.709-0.199,0.888-0.52l6.874-12.288c0.168-0.301,0.487-0.488,0.833-0.488
				c0.254,0,0.492,0.099,0.672,0.279l2.496,2.497c0.245,0.245,0.338,0.603,0.242,0.936L-5.404,6.272
				C-5.506,6.627-5.407,7.009-5.146,7.27l5.512,5.512c1.014,1.014,1.748,3.386,0.739,4.396c-0.314,0.314-0.791,0.48-1.379,0.48
				c-1.024,0-2.321-0.524-3.016-1.22l-5.512-5.512c-0.192-0.192-0.447-0.297-0.718-0.297c-0.095,0-0.189,0.013-0.28,0.039
				l-16.528,4.741c-0.085,0.025-0.174,0.037-0.263,0.037c-0.254,0-0.494-0.099-0.674-0.279l-2.497-2.497
				c-0.213-0.213-0.311-0.506-0.27-0.804c0.041-0.298,0.216-0.554,0.479-0.701l12.288-6.874c0.28-0.157,0.466-0.429,0.51-0.747
				c0.044-0.318-0.061-0.631-0.288-0.858l-5.224-5.224c-0.189-0.189-0.451-0.297-0.718-0.297c-0.064,0-0.128,0.006-0.191,0.018
				l-5.814,1.11C-29.048-1.696-29.109-1.69-29.168-1.69z"/>
		</g>
	</g>
	<g>
		<g>
			<path d="M208.337,150.459c-0.466,0.466-1.032,0.812-1.681,1.028c-0.506,0.168-1.055,0.254-1.633,0.254
				c-0.873,0-1.808-0.195-2.704-0.565c-0.882-0.364-1.659-0.867-2.247-1.456l-4.795-4.795l-15.554,4.461
				c-0.331,0.095-0.673,0.143-1.017,0.143c-0.484,0-0.955-0.093-1.403-0.277c-0.454-0.186-0.859-0.457-1.206-0.804l-2.496-2.496
				c-0.413-0.413-0.725-0.923-0.903-1.476c-0.169-0.525-0.219-1.092-0.143-1.639c0.076-0.548,0.278-1.08,0.583-1.539
				c0.322-0.484,0.761-0.89,1.27-1.175l10.303-5.763l-2.971-2.971l-4.919,0.939c-0.228,0.044-0.461,0.065-0.692,0.065
				c-0.485,0-0.958-0.094-1.406-0.278c-0.452-0.186-0.857-0.456-1.203-0.802l-0.706-0.706c-0.412-0.412-0.725-0.923-0.903-1.476
				c-0.169-0.525-0.219-1.092-0.143-1.639c0.076-0.547,0.277-1.08,0.583-1.539c0.322-0.484,0.761-0.89,1.27-1.175l5.793-3.242
				l3.242-5.793c0.652-1.164,1.886-1.888,3.221-1.888c0.984,0,1.91,0.384,2.607,1.081l0.706,0.706
				c0.865,0.865,1.245,2.099,1.015,3.301l-0.939,4.918l2.971,2.971l5.763-10.303c0.651-1.165,1.886-1.888,3.221-1.888
				c0.984,0,1.91,0.384,2.607,1.081l2.496,2.497c0.948,0.948,1.307,2.337,0.938,3.626l-4.461,15.554l4.795,4.795
				c0.877,0.877,1.575,2.208,1.868,3.561c0.168,0.775,0.199,1.521,0.093,2.218C209.41,148.949,208.987,149.809,208.337,150.459z
				 M205.685,144.106l-5.512-5.512c-0.253-0.253-0.349-0.623-0.25-0.967l4.741-16.528c0.099-0.344,0.003-0.714-0.25-0.967
				l-2.496-2.497c-0.195-0.195-0.446-0.288-0.694-0.288c-0.34,0-0.676,0.175-0.86,0.504l-6.874,12.288
				c-0.184,0.329-0.52,0.504-0.86,0.504c-0.249,0-0.5-0.093-0.694-0.288l-5.224-5.224c-0.23-0.23-0.332-0.56-0.271-0.88l1.11-5.814
				c0.061-0.32-0.04-0.65-0.271-0.88l-0.706-0.706c-0.195-0.195-0.446-0.288-0.694-0.288c-0.34,0-0.676,0.175-0.86,0.504
				l-3.48,6.217c-0.089,0.159-0.22,0.289-0.378,0.378l-6.217,3.479c-0.569,0.319-0.677,1.093-0.215,1.555l0.706,0.706
				c0.186,0.186,0.437,0.288,0.696,0.288c0.061,0,0.123-0.006,0.185-0.017l5.814-1.11c0.061-0.012,0.123-0.017,0.185-0.017
				c0.258,0,0.51,0.102,0.696,0.288l5.224,5.224c0.461,0.461,0.354,1.236-0.215,1.555l-12.288,6.874
				c-0.57,0.319-0.677,1.093-0.215,1.555l2.497,2.497c0.187,0.187,0.439,0.288,0.696,0.288c0.09,0,0.182-0.012,0.271-0.038
				l16.528-4.741c0.089-0.026,0.181-0.038,0.271-0.038c0.257,0,0.509,0.101,0.696,0.288l5.512,5.512
				c0.677,0.677,1.955,1.229,3.038,1.229c0.553,0,1.056-0.144,1.401-0.49C207.447,147.523,206.708,145.128,205.685,144.106z"/>
			<path d="M185.877,113.823c-1.347,0-2.591,0.729-3.248,1.904l-3.238,5.785l-5.785,3.237c-0.513,0.287-0.956,0.697-1.281,1.185
				c-0.308,0.463-0.511,1-0.588,1.552c-0.076,0.552-0.027,1.124,0.144,1.653c0.18,0.558,0.495,1.072,0.911,1.488l0.706,0.706
				c0.349,0.349,0.757,0.621,1.213,0.809c0.452,0.186,0.929,0.281,1.418,0.281c0.234,0,0.469-0.022,0.698-0.066l4.902-0.936
				l2.93,2.93l-10.266,5.743c-0.514,0.287-0.957,0.697-1.281,1.185c-0.308,0.463-0.512,1-0.588,1.552
				c-0.077,0.552-0.027,1.124,0.144,1.653c0.18,0.558,0.495,1.072,0.911,1.488l2.496,2.496c0.35,0.35,0.759,0.622,1.217,0.811
				c0.451,0.185,0.927,0.279,1.415,0.279c0.347,0,0.692-0.049,1.026-0.144l15.536-4.456l4.782,4.782
				c0.592,0.592,1.372,1.098,2.258,1.463c0.9,0.371,1.839,0.568,2.716,0.568c0.582,0,1.134-0.086,1.643-0.255
				c0.654-0.218,1.224-0.566,1.693-1.036c0.655-0.655,1.08-1.521,1.23-2.504c0.107-0.701,0.076-1.451-0.093-2.229
				c-0.294-1.359-0.995-2.696-1.876-3.577l-4.782-4.782l4.456-15.536c0.373-1.3,0.01-2.701-0.946-3.657l-2.496-2.496
				c-0.703-0.703-1.637-1.09-2.63-1.09c-1.347,0-2.592,0.73-3.249,1.905l-5.743,10.266l-2.93-2.93l0.936-4.902
				c0.231-1.212-0.151-2.456-1.024-3.329l-0.706-0.706C187.804,114.21,186.87,113.823,185.877,113.823z M176.129,132.36
				c-0.48,0-0.949-0.093-1.394-0.276c-0.448-0.185-0.85-0.452-1.193-0.796l-0.706-0.706c-0.409-0.409-0.718-0.915-0.895-1.463
				c-0.168-0.52-0.217-1.082-0.142-1.625c0.075-0.543,0.275-1.07,0.578-1.525c0.319-0.479,0.754-0.882,1.259-1.165l5.8-3.246
				l0.004-0.008l3.242-5.793c0.646-1.154,1.87-1.871,3.193-1.871c0.976,0,1.894,0.38,2.585,1.071l0.706,0.706
				c0.858,0.858,1.234,2.081,1.007,3.272l-0.942,4.935l0.012,0.012l3.001,3.001l0.02-0.036l5.763-10.303
				c0.646-1.155,1.87-1.872,3.194-1.872c0.976,0,1.894,0.38,2.585,1.071l2.496,2.497c0.94,0.94,1.296,2.317,0.93,3.595
				l-4.466,15.571l4.809,4.809c0.873,0.873,1.568,2.198,1.859,3.546c0.167,0.771,0.198,1.514,0.092,2.206
				c-0.148,0.97-0.567,1.824-1.212,2.469c-0.463,0.463-1.024,0.806-1.669,1.021c-0.502,0.167-1.048,0.252-1.623,0.252
				c-0.869,0-1.8-0.195-2.692-0.563c-0.878-0.362-1.651-0.863-2.237-1.449l-4.809-4.809l-0.018,0.005l-15.554,4.461
				c-0.328,0.094-0.667,0.142-1.008,0.142c-0.479,0-0.947-0.092-1.391-0.275c-0.45-0.185-0.852-0.453-1.196-0.797l-2.496-2.496
				c-0.409-0.409-0.719-0.915-0.895-1.463c-0.168-0.521-0.217-1.083-0.141-1.625s0.275-1.07,0.578-1.526
				c0.319-0.479,0.755-0.882,1.26-1.165l10.339-5.784l-3.013-3.013l-4.935,0.942C176.589,132.339,176.359,132.36,176.129,132.36z
				 M185.877,116.528c-0.368,0-0.708,0.199-0.888,0.52l-3.48,6.217c-0.086,0.154-0.212,0.28-0.366,0.366l-6.217,3.479
				c-0.28,0.157-0.466,0.429-0.51,0.747c-0.044,0.318,0.061,0.631,0.288,0.858l0.706,0.706c0.192,0.192,0.447,0.297,0.718,0.297
				c0.064,0,0.128-0.006,0.191-0.018l5.814-1.11c0.059-0.011,0.119-0.017,0.179-0.017c0.251,0,0.496,0.102,0.674,0.279l5.224,5.224
				c0.213,0.213,0.311,0.506,0.27,0.804c-0.041,0.298-0.216,0.554-0.479,0.701l-12.288,6.874c-0.28,0.157-0.466,0.429-0.51,0.747
				c-0.044,0.318,0.061,0.631,0.288,0.858l2.497,2.497c0.192,0.192,0.447,0.298,0.718,0.298c0.095,0,0.189-0.013,0.28-0.039
				l16.528-4.741c0.085-0.025,0.174-0.037,0.263-0.037c0.254,0,0.494,0.099,0.674,0.279l5.512,5.512
				c0.718,0.718,2.005,1.238,3.061,1.238c0.605,0,1.097-0.173,1.424-0.499c1.034-1.034,0.292-3.453-0.739-4.485l-5.512-5.512
				c-0.245-0.245-0.338-0.603-0.242-0.936l4.741-16.528c0.102-0.355,0.003-0.737-0.258-0.998l-2.496-2.497
				c-0.192-0.192-0.446-0.298-0.717-0.298c-0.368,0-0.709,0.199-0.888,0.52l-6.874,12.288c-0.168,0.301-0.487,0.488-0.833,0.488
				c-0.253,0-0.492-0.099-0.672-0.279l-5.224-5.224c-0.223-0.223-0.321-0.542-0.262-0.852l1.11-5.814
				c0.063-0.331-0.041-0.671-0.279-0.909l-0.706-0.706C186.402,116.634,186.147,116.528,185.877,116.528z M176.129,129.655
				c-0.254,0-0.494-0.099-0.674-0.279l-0.706-0.706c-0.213-0.213-0.311-0.506-0.27-0.804c0.041-0.298,0.216-0.554,0.478-0.701
				l6.217-3.479c0.164-0.092,0.299-0.227,0.39-0.39l3.48-6.217c0.168-0.301,0.487-0.487,0.833-0.487
				c0.253,0,0.492,0.099,0.672,0.279l0.706,0.706c0.223,0.223,0.321,0.542,0.262,0.852l-1.11,5.814
				c-0.063,0.331,0.041,0.67,0.279,0.909l5.224,5.224c0.192,0.192,0.446,0.298,0.717,0.298c0.368,0,0.709-0.199,0.888-0.52
				l6.874-12.288c0.168-0.301,0.487-0.488,0.833-0.488c0.254,0,0.492,0.099,0.672,0.279l2.496,2.497
				c0.245,0.245,0.338,0.603,0.242,0.936l-4.741,16.528c-0.102,0.355-0.003,0.737,0.258,0.998l5.512,5.512
				c1.014,1.014,1.748,3.386,0.739,4.396c-0.314,0.314-0.791,0.48-1.379,0.48c-1.024,0-2.321-0.524-3.016-1.22l-5.512-5.512
				c-0.192-0.192-0.447-0.297-0.718-0.297c-0.095,0-0.189,0.013-0.28,0.039l-16.528,4.741c-0.085,0.025-0.174,0.037-0.263,0.037
				c-0.254,0-0.494-0.099-0.674-0.279l-2.497-2.497c-0.213-0.213-0.311-0.506-0.27-0.804c0.041-0.298,0.216-0.554,0.479-0.701
				l12.288-6.874c0.28-0.157,0.466-0.429,0.51-0.747c0.044-0.318-0.061-0.631-0.288-0.858l-5.224-5.224
				c-0.189-0.189-0.451-0.297-0.718-0.297c-0.064,0-0.128,0.006-0.191,0.018l-5.814,1.11
				C176.248,129.65,176.188,129.655,176.129,129.655z"/>
		</g>
	</g>
	<g>
		<g>
			<path d="M-193.013-119.048c-0.466,0.466-1.032,0.812-1.681,1.028c-0.506,0.168-1.055,0.254-1.633,0.254
				c-0.873,0-1.808-0.196-2.704-0.565c-0.882-0.364-1.659-0.867-2.247-1.456l-4.795-4.795l-15.554,4.461
				c-0.331,0.095-0.673,0.143-1.017,0.143c-0.484,0-0.955-0.093-1.403-0.277c-0.454-0.186-0.859-0.457-1.206-0.804l-2.496-2.496
				c-0.413-0.413-0.725-0.923-0.903-1.476c-0.169-0.525-0.219-1.092-0.143-1.639c0.076-0.548,0.278-1.08,0.583-1.539
				c0.322-0.484,0.761-0.89,1.27-1.175l10.303-5.763l-2.971-2.971l-4.919,0.939c-0.228,0.044-0.461,0.065-0.692,0.065
				c-0.485,0-0.958-0.094-1.406-0.278c-0.452-0.186-0.857-0.456-1.203-0.802l-0.706-0.706c-0.412-0.412-0.725-0.923-0.903-1.476
				c-0.169-0.525-0.219-1.092-0.143-1.639c0.076-0.547,0.277-1.08,0.583-1.539c0.322-0.484,0.761-0.89,1.27-1.175l5.793-3.242
				l3.242-5.793c0.652-1.164,1.886-1.888,3.221-1.888c0.984,0,1.91,0.384,2.607,1.081l0.706,0.706
				c0.865,0.865,1.244,2.099,1.015,3.301l-0.939,4.918l2.971,2.971l5.763-10.303c0.651-1.165,1.886-1.888,3.221-1.888
				c0.984,0,1.91,0.384,2.607,1.081l2.496,2.497c0.948,0.948,1.307,2.337,0.938,3.626l-4.461,15.554l4.795,4.795
				c0.877,0.877,1.575,2.208,1.868,3.561c0.168,0.775,0.199,1.521,0.093,2.218C-191.941-120.559-192.363-119.699-193.013-119.048z
				 M-195.665-125.402l-5.512-5.512c-0.253-0.253-0.349-0.623-0.25-0.967l4.741-16.528c0.099-0.344,0.003-0.714-0.25-0.967
				l-2.496-2.497c-0.195-0.195-0.446-0.288-0.694-0.288c-0.34,0-0.676,0.175-0.86,0.504l-6.874,12.288
				c-0.184,0.329-0.52,0.504-0.86,0.504c-0.249,0-0.5-0.093-0.694-0.288l-5.224-5.224c-0.23-0.23-0.332-0.56-0.271-0.88l1.11-5.814
				c0.061-0.32-0.04-0.65-0.271-0.88l-0.706-0.706c-0.195-0.195-0.446-0.288-0.694-0.288c-0.34,0-0.676,0.175-0.86,0.504
				l-3.48,6.217c-0.089,0.159-0.22,0.289-0.378,0.378l-6.217,3.479c-0.569,0.319-0.677,1.093-0.215,1.555l0.706,0.706
				c0.186,0.186,0.437,0.288,0.696,0.288c0.061,0,0.123-0.006,0.185-0.017l5.814-1.11c0.061-0.012,0.123-0.017,0.185-0.017
				c0.258,0,0.51,0.102,0.696,0.288l5.224,5.224c0.461,0.461,0.354,1.236-0.215,1.555l-12.288,6.874
				c-0.57,0.319-0.677,1.093-0.215,1.555l2.497,2.497c0.187,0.187,0.439,0.288,0.696,0.288c0.09,0,0.182-0.013,0.271-0.038
				l16.528-4.741c0.089-0.026,0.181-0.038,0.271-0.038c0.257,0,0.509,0.101,0.696,0.288l5.512,5.512
				c0.677,0.677,1.955,1.229,3.038,1.229c0.553,0,1.056-0.144,1.401-0.49C-193.903-121.984-194.642-124.379-195.665-125.402z"/>
			<path d="M-215.473-155.684c-1.347,0-2.591,0.729-3.248,1.904l-3.238,5.785l-5.785,3.237c-0.513,0.287-0.956,0.697-1.281,1.185
				c-0.308,0.463-0.511,1-0.588,1.552c-0.076,0.552-0.027,1.124,0.144,1.653c0.18,0.558,0.495,1.072,0.911,1.488l0.706,0.706
				c0.349,0.349,0.757,0.621,1.213,0.809c0.452,0.186,0.929,0.281,1.418,0.281c0.234,0,0.469-0.022,0.698-0.066l4.902-0.936
				l2.93,2.93l-10.266,5.743c-0.514,0.287-0.957,0.697-1.281,1.185c-0.308,0.463-0.512,1-0.588,1.552
				c-0.077,0.552-0.027,1.124,0.144,1.653c0.18,0.558,0.495,1.072,0.911,1.488l2.496,2.496c0.35,0.35,0.759,0.622,1.217,0.811
				c0.451,0.185,0.927,0.279,1.415,0.279c0.347,0,0.692-0.049,1.026-0.144l15.536-4.456l4.782,4.782
				c0.592,0.592,1.372,1.098,2.258,1.463c0.9,0.371,1.839,0.568,2.716,0.568c0.582,0,1.134-0.086,1.643-0.255
				c0.654-0.218,1.224-0.566,1.693-1.036c0.655-0.655,1.08-1.521,1.23-2.504c0.107-0.701,0.076-1.451-0.093-2.229
				c-0.294-1.359-0.995-2.696-1.876-3.577l-4.782-4.782l4.456-15.536c0.373-1.3,0.01-2.701-0.946-3.657l-2.496-2.497
				c-0.703-0.703-1.637-1.09-2.63-1.09c-1.347,0-2.592,0.73-3.249,1.904l-5.743,10.266l-2.93-2.93l0.936-4.902
				c0.231-1.212-0.151-2.456-1.024-3.329l-0.706-0.706C-213.547-155.297-214.481-155.684-215.473-155.684z M-225.221-137.147
				c-0.48,0-0.949-0.093-1.394-0.276c-0.448-0.185-0.85-0.452-1.193-0.796l-0.706-0.706c-0.409-0.409-0.718-0.915-0.895-1.463
				c-0.168-0.52-0.217-1.082-0.142-1.625c0.075-0.543,0.275-1.07,0.578-1.525c0.319-0.479,0.754-0.882,1.259-1.165l5.8-3.246
				l0.004-0.008l3.242-5.793c0.646-1.154,1.87-1.871,3.193-1.871c0.976,0,1.894,0.38,2.585,1.071l0.706,0.706
				c0.858,0.858,1.234,2.081,1.007,3.272l-0.942,4.935l0.012,0.012l3.001,3.001l0.02-0.036l5.763-10.303
				c0.646-1.155,1.87-1.872,3.194-1.872c0.976,0,1.894,0.38,2.585,1.071l2.496,2.497c0.94,0.94,1.296,2.317,0.93,3.595
				l-4.466,15.571l4.809,4.809c0.873,0.873,1.568,2.198,1.859,3.546c0.167,0.771,0.198,1.513,0.092,2.206
				c-0.148,0.97-0.567,1.824-1.212,2.469c-0.463,0.463-1.024,0.806-1.669,1.021c-0.502,0.167-1.048,0.252-1.623,0.252
				c-0.869,0-1.8-0.195-2.692-0.563c-0.878-0.362-1.651-0.863-2.237-1.449l-4.809-4.809l-0.018,0.005l-15.554,4.461
				c-0.328,0.094-0.667,0.142-1.008,0.142c-0.479,0-0.947-0.092-1.391-0.275c-0.45-0.185-0.852-0.453-1.196-0.797l-2.496-2.496
				c-0.409-0.409-0.719-0.915-0.895-1.463c-0.168-0.521-0.217-1.083-0.141-1.625s0.275-1.07,0.578-1.526
				c0.319-0.479,0.755-0.882,1.26-1.165l10.339-5.784l-3.013-3.013l-4.935,0.942C-224.761-137.169-224.992-137.147-225.221-137.147z
				 M-215.473-152.979c-0.368,0-0.708,0.199-0.888,0.52l-3.48,6.217c-0.086,0.154-0.212,0.28-0.366,0.366l-6.217,3.479
				c-0.28,0.157-0.466,0.429-0.51,0.747s0.061,0.631,0.288,0.858l0.706,0.706c0.192,0.192,0.447,0.297,0.718,0.297
				c0.064,0,0.128-0.006,0.191-0.018l5.814-1.11c0.059-0.011,0.119-0.017,0.179-0.017c0.251,0,0.496,0.102,0.674,0.279l5.224,5.224
				c0.213,0.213,0.311,0.506,0.27,0.804c-0.041,0.298-0.216,0.554-0.479,0.701l-12.288,6.874c-0.28,0.157-0.466,0.429-0.51,0.747
				c-0.044,0.318,0.061,0.631,0.288,0.858l2.497,2.497c0.192,0.192,0.447,0.298,0.718,0.298c0.095,0,0.189-0.013,0.28-0.039
				l16.528-4.741c0.086-0.024,0.174-0.037,0.263-0.037c0.254,0,0.494,0.099,0.674,0.279l5.512,5.512
				c0.718,0.718,2.005,1.238,3.061,1.238c0.605,0,1.097-0.173,1.424-0.499c1.034-1.034,0.292-3.453-0.739-4.485l-5.512-5.512
				c-0.245-0.245-0.338-0.603-0.242-0.936l4.741-16.528c0.102-0.355,0.003-0.737-0.258-0.998l-2.496-2.497
				c-0.192-0.192-0.446-0.298-0.717-0.298c-0.368,0-0.709,0.199-0.888,0.52l-6.874,12.288c-0.168,0.301-0.487,0.488-0.833,0.488
				c-0.253,0-0.492-0.099-0.672-0.279l-5.224-5.224c-0.223-0.223-0.321-0.542-0.262-0.852l1.11-5.814
				c0.063-0.331-0.041-0.671-0.279-0.909l-0.706-0.706C-214.949-152.873-215.203-152.979-215.473-152.979z M-225.221-139.852
				c-0.254,0-0.494-0.099-0.674-0.279l-0.706-0.706c-0.213-0.213-0.311-0.506-0.27-0.804c0.041-0.298,0.216-0.554,0.478-0.701
				l6.217-3.479c0.164-0.092,0.299-0.227,0.39-0.39l3.48-6.217c0.168-0.301,0.487-0.487,0.833-0.487
				c0.253,0,0.492,0.099,0.672,0.279l0.706,0.706c0.223,0.223,0.321,0.542,0.262,0.852l-1.11,5.814
				c-0.063,0.331,0.041,0.67,0.279,0.909l5.224,5.224c0.192,0.192,0.446,0.298,0.717,0.298c0.368,0,0.708-0.199,0.888-0.52
				l6.874-12.288c0.168-0.301,0.487-0.488,0.833-0.488c0.254,0,0.492,0.099,0.672,0.279l2.496,2.497
				c0.245,0.245,0.338,0.603,0.242,0.936l-4.741,16.528c-0.102,0.355-0.003,0.737,0.258,0.998l5.512,5.512
				c1.014,1.014,1.748,3.386,0.739,4.396c-0.314,0.314-0.791,0.48-1.379,0.48c-1.024,0-2.321-0.524-3.016-1.22l-5.512-5.512
				c-0.192-0.192-0.447-0.297-0.718-0.297c-0.095,0-0.189,0.013-0.28,0.039l-16.528,4.741c-0.085,0.025-0.174,0.037-0.263,0.037
				c-0.254,0-0.494-0.099-0.674-0.279l-2.497-2.497c-0.213-0.213-0.311-0.506-0.27-0.804c0.041-0.298,0.216-0.554,0.479-0.701
				l12.288-6.874c0.28-0.157,0.466-0.429,0.51-0.747c0.044-0.318-0.061-0.631-0.288-0.858l-5.224-5.224
				c-0.189-0.189-0.451-0.297-0.718-0.297c-0.064,0-0.128,0.006-0.191,0.018l-5.814,1.11
				C-225.102-139.858-225.162-139.852-225.221-139.852z"/>
		</g>
	</g>
	<g>
		<g>
			<path d="M169.995-150.413c0.466-0.466,1.032-0.812,1.681-1.028c0.506-0.168,1.055-0.254,1.633-0.254
				c0.873,0,1.808,0.195,2.704,0.565c0.882,0.364,1.659,0.867,2.247,1.456l4.795,4.795l15.554-4.461
				c0.331-0.095,0.673-0.143,1.017-0.143c0.484,0,0.955,0.093,1.403,0.277c0.454,0.186,0.859,0.457,1.206,0.804l2.496,2.496
				c0.413,0.413,0.725,0.923,0.903,1.476c0.169,0.525,0.219,1.092,0.143,1.639c-0.076,0.548-0.278,1.08-0.583,1.539
				c-0.322,0.484-0.761,0.89-1.27,1.175l-10.303,5.763l2.971,2.971l4.919-0.939c0.228-0.044,0.461-0.065,0.692-0.065
				c0.485,0,0.958,0.094,1.406,0.278c0.452,0.186,0.857,0.456,1.203,0.802l0.706,0.706c0.412,0.412,0.725,0.923,0.903,1.476
				c0.169,0.525,0.219,1.092,0.143,1.639c-0.076,0.547-0.277,1.08-0.583,1.539c-0.322,0.484-0.761,0.89-1.27,1.175l-5.793,3.242
				l-3.242,5.793c-0.652,1.164-1.886,1.888-3.221,1.888c-0.984,0-1.91-0.384-2.607-1.081l-0.706-0.706
				c-0.865-0.865-1.245-2.099-1.015-3.301l0.939-4.918l-2.971-2.971l-5.763,10.303c-0.651,1.165-1.886,1.888-3.221,1.888
				c-0.984,0-1.91-0.384-2.607-1.081l-2.496-2.497c-0.948-0.948-1.307-2.337-0.938-3.626l4.461-15.554l-4.795-4.795
				c-0.877-0.877-1.575-2.208-1.868-3.561c-0.168-0.775-0.199-1.521-0.093-2.218C168.923-148.903,169.345-149.763,169.995-150.413z
				 M172.647-144.06l5.512,5.512c0.253,0.253,0.349,0.623,0.25,0.967l-4.741,16.528c-0.099,0.344-0.003,0.714,0.25,0.967
				l2.496,2.497c0.195,0.195,0.446,0.288,0.694,0.288c0.34,0,0.676-0.175,0.86-0.504l6.874-12.288
				c0.184-0.329,0.52-0.504,0.86-0.504c0.249,0,0.5,0.093,0.694,0.288l5.224,5.224c0.23,0.23,0.332,0.56,0.271,0.88l-1.11,5.814
				c-0.061,0.32,0.04,0.65,0.271,0.88l0.706,0.706c0.195,0.195,0.446,0.288,0.694,0.288c0.34,0,0.676-0.175,0.86-0.504l3.48-6.217
				c0.089-0.159,0.22-0.289,0.378-0.378l6.217-3.479c0.569-0.319,0.677-1.093,0.215-1.555l-0.706-0.706
				c-0.186-0.186-0.437-0.288-0.696-0.288c-0.061,0-0.123,0.006-0.185,0.017l-5.814,1.11c-0.061,0.012-0.123,0.017-0.185,0.017
				c-0.258,0-0.51-0.102-0.696-0.288l-5.224-5.224c-0.461-0.461-0.354-1.236,0.215-1.555l12.288-6.874
				c0.57-0.319,0.677-1.093,0.215-1.555l-2.497-2.497c-0.187-0.187-0.439-0.288-0.696-0.288c-0.09,0-0.182,0.012-0.271,0.038
				l-16.528,4.741c-0.089,0.026-0.181,0.038-0.271,0.038c-0.257,0-0.509-0.101-0.696-0.288l-5.512-5.512
				c-0.677-0.677-1.955-1.229-3.038-1.229c-0.553,0-1.056,0.144-1.401,0.49C170.885-147.478,171.624-145.083,172.647-144.06z"/>
			<path d="M192.456-113.777c1.347,0,2.591-0.729,3.248-1.904l3.238-5.785l5.785-3.237c0.513-0.287,0.956-0.697,1.281-1.185
				c0.308-0.463,0.511-1,0.588-1.552c0.076-0.552,0.027-1.124-0.144-1.653c-0.18-0.558-0.495-1.072-0.911-1.488l-0.706-0.706
				c-0.349-0.349-0.757-0.621-1.213-0.809c-0.452-0.186-0.929-0.281-1.418-0.281c-0.234,0-0.469,0.022-0.698,0.066l-4.902,0.936
				l-2.93-2.93l10.266-5.743c0.514-0.287,0.957-0.697,1.281-1.185c0.308-0.463,0.512-1,0.588-1.552
				c0.077-0.552,0.027-1.124-0.144-1.653c-0.18-0.558-0.495-1.072-0.911-1.488l-2.496-2.496c-0.35-0.35-0.759-0.622-1.217-0.811
				c-0.451-0.185-0.927-0.279-1.415-0.279c-0.347,0-0.692,0.049-1.026,0.144l-15.536,4.456l-4.782-4.782
				c-0.592-0.592-1.372-1.098-2.258-1.463c-0.9-0.371-1.839-0.568-2.716-0.568c-0.582,0-1.134,0.086-1.643,0.255
				c-0.654,0.218-1.224,0.566-1.693,1.036c-0.655,0.655-1.08,1.521-1.23,2.504c-0.107,0.701-0.076,1.451,0.093,2.229
				c0.294,1.359,0.995,2.696,1.876,3.577l4.782,4.782l-4.456,15.536c-0.373,1.3-0.01,2.701,0.946,3.657l2.496,2.497
				c0.703,0.703,1.637,1.09,2.63,1.09c1.347,0,2.592-0.73,3.249-1.905l5.743-10.266l2.93,2.93l-0.936,4.902
				c-0.231,1.212,0.151,2.456,1.024,3.329l0.706,0.706C190.529-114.164,191.463-113.777,192.456-113.777z M202.204-132.315
				c0.48,0,0.949,0.093,1.394,0.276c0.448,0.185,0.85,0.452,1.193,0.796l0.706,0.706c0.409,0.409,0.718,0.915,0.895,1.463
				c0.168,0.52,0.217,1.082,0.142,1.625c-0.075,0.543-0.275,1.07-0.578,1.525c-0.319,0.479-0.754,0.882-1.259,1.165l-5.8,3.246
				l-0.004,0.008l-3.242,5.793c-0.646,1.154-1.87,1.871-3.193,1.871c-0.976,0-1.894-0.38-2.585-1.071l-0.706-0.706
				c-0.858-0.858-1.234-2.081-1.006-3.272l0.942-4.935l-0.012-0.012l-3.001-3.001l-0.02,0.036l-5.763,10.303
				c-0.646,1.155-1.87,1.872-3.194,1.872c-0.976,0-1.894-0.38-2.585-1.071l-2.496-2.497c-0.94-0.94-1.296-2.317-0.93-3.595
				l4.466-15.571l-4.809-4.809c-0.873-0.873-1.568-2.198-1.859-3.546c-0.167-0.771-0.198-1.514-0.092-2.206
				c0.148-0.97,0.567-1.824,1.212-2.469c0.463-0.463,1.024-0.806,1.669-1.021c0.502-0.167,1.048-0.252,1.623-0.252
				c0.869,0,1.8,0.195,2.692,0.563c0.878,0.362,1.651,0.863,2.237,1.449l4.809,4.809l0.018-0.005l15.554-4.461
				c0.328-0.094,0.667-0.142,1.008-0.142c0.479,0,0.947,0.092,1.391,0.275c0.45,0.185,0.852,0.453,1.196,0.797l2.496,2.496
				c0.409,0.409,0.719,0.915,0.895,1.463c0.168,0.521,0.217,1.083,0.141,1.625c-0.075,0.543-0.275,1.07-0.578,1.526
				c-0.319,0.479-0.755,0.882-1.26,1.165l-10.339,5.784l3.013,3.013l4.935-0.942C201.743-132.293,201.974-132.315,202.204-132.315z
				 M192.456-116.483c0.368,0,0.708-0.199,0.888-0.52l3.48-6.217c0.086-0.154,0.212-0.28,0.366-0.366l6.217-3.479
				c0.28-0.157,0.466-0.429,0.51-0.747c0.044-0.318-0.061-0.631-0.288-0.858l-0.706-0.706c-0.192-0.192-0.447-0.297-0.718-0.297
				c-0.064,0-0.128,0.006-0.191,0.018l-5.814,1.11c-0.059,0.011-0.119,0.017-0.179,0.017c-0.251,0-0.496-0.102-0.674-0.279
				l-5.224-5.224c-0.213-0.213-0.311-0.506-0.27-0.804c0.041-0.298,0.216-0.554,0.479-0.701l12.288-6.874
				c0.28-0.157,0.466-0.429,0.51-0.747c0.044-0.318-0.061-0.631-0.288-0.858l-2.497-2.497c-0.192-0.192-0.447-0.298-0.718-0.298
				c-0.095,0-0.189,0.013-0.28,0.039l-16.528,4.741c-0.085,0.025-0.174,0.037-0.263,0.037c-0.254,0-0.494-0.099-0.674-0.279
				l-5.512-5.512c-0.718-0.718-2.005-1.238-3.061-1.238c-0.605,0-1.097,0.173-1.424,0.499c-1.034,1.034-0.292,3.453,0.739,4.485
				l5.512,5.512c0.245,0.245,0.338,0.603,0.242,0.936l-4.741,16.528c-0.102,0.355-0.003,0.737,0.258,0.998l2.496,2.497
				c0.192,0.192,0.446,0.298,0.717,0.298c0.368,0,0.709-0.199,0.888-0.52l6.874-12.288c0.168-0.301,0.487-0.488,0.833-0.488
				c0.253,0,0.492,0.099,0.672,0.279l5.224,5.224c0.223,0.223,0.321,0.542,0.262,0.852l-1.11,5.814
				c-0.063,0.331,0.041,0.671,0.279,0.909l0.706,0.706C191.931-116.588,192.185-116.483,192.456-116.483z M202.204-129.61
				c0.254,0,0.494,0.099,0.674,0.279l0.706,0.706c0.213,0.213,0.311,0.506,0.27,0.804c-0.041,0.298-0.216,0.554-0.478,0.701
				l-6.217,3.479c-0.164,0.092-0.299,0.227-0.39,0.39l-3.48,6.217c-0.168,0.301-0.487,0.487-0.833,0.487
				c-0.253,0-0.492-0.099-0.672-0.279l-0.706-0.706c-0.223-0.223-0.321-0.542-0.262-0.852l1.11-5.814
				c0.063-0.331-0.041-0.67-0.279-0.909l-5.224-5.224c-0.192-0.192-0.446-0.298-0.717-0.298c-0.368,0-0.709,0.199-0.888,0.52
				l-6.874,12.288c-0.168,0.301-0.487,0.488-0.833,0.488c-0.254,0-0.492-0.099-0.672-0.279l-2.496-2.497
				c-0.245-0.245-0.338-0.603-0.242-0.936l4.741-16.528c0.102-0.355,0.003-0.737-0.258-0.998l-5.512-5.512
				c-1.014-1.014-1.748-3.386-0.739-4.396c0.314-0.314,0.791-0.48,1.379-0.48c1.024,0,2.321,0.525,3.016,1.22l5.512,5.512
				c0.192,0.192,0.447,0.297,0.718,0.297c0.095,0,0.189-0.013,0.28-0.039l16.528-4.741c0.085-0.025,0.174-0.037,0.263-0.037
				c0.254,0,0.494,0.099,0.674,0.279l2.497,2.497c0.213,0.213,0.311,0.506,0.27,0.804c-0.041,0.298-0.216,0.554-0.479,0.701
				l-12.288,6.874c-0.28,0.157-0.466,0.429-0.51,0.747c-0.044,0.318,0.061,0.631,0.288,0.858l5.224,5.224
				c0.189,0.189,0.451,0.297,0.718,0.297c0.064,0,0.128-0.006,0.191-0.018l5.814-1.11
				C202.084-129.604,202.144-129.61,202.204-129.61z"/>
		</g>
	</g>
	<path style="fill:none;stroke:#000000;stroke-width:3;stroke-miterlimit:10;" d="M-0.149,118.904c0-5.401-4.379-9.78-9.78-9.78
		s-9.78,4.379-9.78,9.78s4.379,9.78,9.78,9.78S-0.149,124.306-0.149,118.904z"/>
	<path style="fill:none;stroke:#000000;stroke-width:3;stroke-miterlimit:10;" d="M200.306,2.018c0-5.401-4.379-9.78-9.78-9.78
		c-5.401,0-9.78,4.379-9.78,9.78s4.379,9.78,9.78,9.78C195.927,11.798,200.306,7.419,200.306,2.018z"/>
	<path style="fill:none;stroke:#000000;stroke-width:3;stroke-miterlimit:10;" d="M-200.895,4.238c0-5.401-4.379-9.78-9.78-9.78
		c-5.401,0-9.78,4.379-9.78,9.78s4.379,9.78,9.78,9.78C-205.274,14.018-200.895,9.64-200.895,4.238z"/>
	<path style="fill:none;stroke:#000000;stroke-width:3;stroke-miterlimit:10;" d="M-5.07-117.532c0-5.401-4.379-9.78-9.78-9.78
		s-9.78,4.379-9.78,9.78s4.379,9.78,9.78,9.78S-5.07-112.131-5.07-117.532z"/>
	<g>
		<g>
			<path d="M369.835,22.378c-0.466,0.466-1.032,0.812-1.681,1.028c-0.506,0.168-1.055,0.254-1.633,0.254
				c-0.873,0-1.808-0.196-2.704-0.565c-0.882-0.364-1.659-0.867-2.247-1.456l-4.795-4.795l-15.554,4.461
				c-0.331,0.095-0.673,0.143-1.017,0.143c-0.484,0-0.955-0.093-1.403-0.277c-0.454-0.186-0.859-0.457-1.206-0.804l-2.496-2.496
				c-0.413-0.413-0.725-0.923-0.903-1.476c-0.169-0.525-0.219-1.092-0.143-1.639c0.076-0.548,0.278-1.08,0.583-1.539
				c0.322-0.484,0.761-0.89,1.27-1.175l10.303-5.763l-2.971-2.971l-4.919,0.939c-0.228,0.044-0.461,0.065-0.692,0.065
				c-0.485,0-0.958-0.094-1.406-0.278c-0.452-0.186-0.857-0.456-1.203-0.802l-0.706-0.706c-0.412-0.412-0.725-0.923-0.903-1.476
				c-0.169-0.525-0.219-1.092-0.143-1.639c0.076-0.547,0.277-1.08,0.583-1.539c0.322-0.484,0.761-0.89,1.27-1.175l5.793-3.242
				l3.242-5.793c0.652-1.164,1.886-1.888,3.221-1.888c0.984,0,1.91,0.384,2.607,1.081l0.706,0.706
				c0.865,0.865,1.245,2.099,1.015,3.301l-0.939,4.918l2.971,2.971l5.763-10.303c0.651-1.165,1.886-1.888,3.221-1.888
				c0.984,0,1.91,0.384,2.607,1.081l2.496,2.497c0.948,0.948,1.307,2.337,0.938,3.626l-4.461,15.554l4.795,4.795
				c0.877,0.877,1.575,2.208,1.868,3.561c0.168,0.775,0.199,1.521,0.093,2.218C370.908,20.868,370.486,21.728,369.835,22.378z
				 M367.184,16.025l-5.512-5.512c-0.253-0.253-0.349-0.623-0.25-0.967l4.741-16.528c0.099-0.344,0.003-0.714-0.25-0.967
				l-2.496-2.497c-0.195-0.195-0.446-0.288-0.694-0.288c-0.34,0-0.676,0.175-0.86,0.504l-6.874,12.288
				c-0.184,0.329-0.52,0.504-0.86,0.504c-0.249,0-0.5-0.093-0.694-0.288l-5.224-5.224c-0.23-0.23-0.332-0.56-0.271-0.88l1.11-5.814
				c0.061-0.32-0.04-0.65-0.271-0.88l-0.706-0.706c-0.195-0.195-0.446-0.288-0.694-0.288c-0.34,0-0.676,0.175-0.86,0.504
				l-3.48,6.217c-0.089,0.159-0.22,0.289-0.378,0.378l-6.217,3.479c-0.569,0.319-0.677,1.093-0.215,1.555l0.706,0.706
				c0.186,0.186,0.437,0.288,0.696,0.288c0.061,0,0.123-0.006,0.185-0.017l5.814-1.11c0.061-0.012,0.123-0.017,0.185-0.017
				c0.258,0,0.51,0.102,0.696,0.288l5.224,5.224c0.461,0.461,0.354,1.236-0.215,1.555l-12.288,6.874
				c-0.57,0.319-0.677,1.093-0.215,1.555l2.496,2.497c0.187,0.187,0.439,0.288,0.696,0.288c0.09,0,0.182-0.013,0.271-0.038
				l16.528-4.741c0.089-0.026,0.181-0.038,0.271-0.038c0.257,0,0.509,0.101,0.696,0.288l5.512,5.512
				c0.677,0.677,1.955,1.229,3.038,1.229c0.553,0,1.056-0.144,1.401-0.49C368.945,19.443,368.206,17.048,367.184,16.025z"/>
			<path d="M347.375-14.257c-1.347,0-2.591,0.729-3.248,1.904l-3.238,5.785l-5.785,3.237c-0.513,0.287-0.956,0.697-1.281,1.185
				c-0.308,0.463-0.511,1-0.588,1.552c-0.076,0.552-0.027,1.124,0.144,1.653c0.18,0.558,0.495,1.072,0.911,1.488l0.706,0.706
				c0.349,0.349,0.757,0.621,1.213,0.809c0.452,0.186,0.929,0.281,1.418,0.281c0.234,0,0.469-0.022,0.698-0.066l4.902-0.936
				l2.93,2.93l-10.266,5.743c-0.514,0.287-0.957,0.697-1.281,1.185c-0.308,0.463-0.512,1-0.588,1.552
				c-0.077,0.552-0.027,1.124,0.144,1.653c0.18,0.558,0.495,1.072,0.911,1.488l2.496,2.496c0.35,0.35,0.759,0.623,1.217,0.811
				c0.451,0.185,0.927,0.279,1.415,0.279c0.347,0,0.692-0.049,1.026-0.144l15.536-4.456l4.782,4.782
				c0.592,0.592,1.372,1.098,2.258,1.463c0.9,0.371,1.839,0.568,2.716,0.568c0.582,0,1.134-0.086,1.643-0.255
				c0.654-0.218,1.224-0.566,1.693-1.036c0.655-0.655,1.08-1.521,1.23-2.504c0.107-0.701,0.076-1.451-0.093-2.229
				c-0.294-1.359-0.995-2.696-1.876-3.577l-4.782-4.782l4.456-15.536c0.373-1.3,0.01-2.701-0.946-3.657l-2.496-2.497
				c-0.703-0.703-1.637-1.09-2.63-1.09c-1.347,0-2.592,0.73-3.249,1.905l-5.743,10.266l-2.93-2.93l0.936-4.902
				c0.231-1.212-0.151-2.456-1.024-3.329l-0.706-0.706C349.302-13.87,348.368-14.257,347.375-14.257z M337.627,4.28
				c-0.48,0-0.949-0.093-1.394-0.276c-0.448-0.185-0.85-0.452-1.193-0.796l-0.706-0.706c-0.409-0.409-0.719-0.915-0.895-1.463
				c-0.168-0.52-0.217-1.082-0.142-1.625c0.075-0.543,0.275-1.07,0.578-1.525c0.319-0.479,0.754-0.882,1.259-1.165l5.8-3.246
				l0.004-0.008l3.242-5.793c0.646-1.154,1.87-1.871,3.193-1.871c0.976,0,1.894,0.38,2.585,1.071l0.706,0.706
				c0.858,0.858,1.234,2.081,1.007,3.272L350.73-4.21l0.012,0.012l3.001,3.001l0.02-0.036l5.763-10.303
				c0.646-1.155,1.87-1.872,3.194-1.872c0.976,0,1.894,0.38,2.585,1.071l2.496,2.497c0.94,0.94,1.296,2.317,0.93,3.595
				l-4.466,15.571l4.809,4.809c0.873,0.873,1.568,2.198,1.859,3.546c0.167,0.771,0.198,1.514,0.092,2.206
				c-0.148,0.97-0.567,1.824-1.212,2.469c-0.463,0.463-1.024,0.806-1.669,1.021c-0.502,0.167-1.048,0.252-1.623,0.252
				c-0.869,0-1.8-0.195-2.692-0.563c-0.878-0.362-1.651-0.863-2.237-1.449l-4.809-4.809l-0.018,0.005l-15.554,4.461
				c-0.328,0.094-0.667,0.142-1.008,0.142c-0.479,0-0.947-0.092-1.391-0.275c-0.45-0.185-0.852-0.453-1.196-0.797l-2.496-2.496
				c-0.409-0.409-0.719-0.915-0.895-1.463c-0.168-0.521-0.217-1.083-0.141-1.625c0.075-0.543,0.275-1.07,0.578-1.526
				c0.319-0.479,0.755-0.882,1.26-1.165l10.339-5.784l-3.013-3.013l-4.935,0.942C338.088,4.258,337.857,4.28,337.627,4.28z
				 M347.375-11.552c-0.368,0-0.708,0.199-0.888,0.52l-3.48,6.217c-0.086,0.154-0.212,0.28-0.366,0.366l-6.217,3.479
				c-0.28,0.157-0.466,0.429-0.51,0.747c-0.044,0.318,0.061,0.631,0.288,0.858l0.706,0.706c0.192,0.192,0.447,0.297,0.718,0.297
				c0.064,0,0.128-0.006,0.191-0.018l5.814-1.11c0.059-0.011,0.119-0.017,0.179-0.017c0.251,0,0.496,0.102,0.674,0.279l5.224,5.224
				c0.213,0.213,0.311,0.506,0.27,0.804c-0.041,0.298-0.216,0.554-0.479,0.701l-12.288,6.874c-0.28,0.157-0.466,0.429-0.51,0.747
				c-0.044,0.318,0.061,0.631,0.288,0.858l2.497,2.497c0.192,0.192,0.447,0.298,0.718,0.298c0.095,0,0.189-0.013,0.28-0.039
				l16.528-4.741c0.086-0.025,0.174-0.037,0.263-0.037c0.254,0,0.494,0.099,0.674,0.279l5.512,5.512
				c0.718,0.718,2.005,1.238,3.061,1.238c0.605,0,1.097-0.173,1.424-0.499c1.034-1.034,0.292-3.453-0.739-4.485l-5.512-5.512
				c-0.245-0.245-0.338-0.603-0.242-0.936l4.741-16.528c0.102-0.355,0.003-0.737-0.258-0.998l-2.496-2.497
				c-0.192-0.192-0.446-0.298-0.717-0.298c-0.368,0-0.709,0.199-0.888,0.52l-6.874,12.288c-0.168,0.301-0.487,0.488-0.833,0.488
				c-0.253,0-0.492-0.099-0.672-0.279l-5.224-5.224c-0.223-0.223-0.321-0.542-0.262-0.852l1.11-5.814
				c0.063-0.331-0.041-0.671-0.279-0.909l-0.706-0.706C347.9-11.446,347.645-11.552,347.375-11.552z M337.627,1.575
				c-0.254,0-0.494-0.099-0.674-0.279l-0.706-0.706c-0.213-0.213-0.311-0.506-0.27-0.804c0.041-0.298,0.216-0.554,0.478-0.701
				l6.217-3.479c0.164-0.092,0.299-0.227,0.39-0.39l3.48-6.217c0.168-0.301,0.487-0.487,0.833-0.487
				c0.253,0,0.492,0.099,0.672,0.279l0.706,0.706c0.223,0.223,0.321,0.542,0.262,0.852l-1.11,5.814
				c-0.063,0.331,0.041,0.67,0.279,0.909l5.224,5.224c0.192,0.192,0.446,0.298,0.717,0.298c0.368,0,0.708-0.199,0.888-0.52
				l6.874-12.288c0.168-0.301,0.487-0.488,0.833-0.488c0.254,0,0.492,0.099,0.672,0.279l2.496,2.497
				c0.245,0.245,0.338,0.603,0.242,0.936l-4.741,16.528c-0.102,0.355-0.003,0.737,0.258,0.998l5.512,5.512
				c1.014,1.014,1.748,3.386,0.739,4.396c-0.314,0.314-0.791,0.48-1.379,0.48c-1.024,0-2.321-0.524-3.016-1.22l-5.512-5.512
				c-0.192-0.192-0.447-0.297-0.718-0.297c-0.095,0-0.189,0.013-0.28,0.039l-16.528,4.741c-0.085,0.024-0.174,0.037-0.263,0.037
				c-0.254,0-0.494-0.099-0.674-0.279l-2.497-2.497c-0.213-0.213-0.311-0.506-0.27-0.804c0.041-0.298,0.216-0.554,0.479-0.701
				l12.288-6.874c0.28-0.157,0.466-0.429,0.51-0.747c0.044-0.318-0.061-0.631-0.288-0.858l-5.224-5.224
				c-0.189-0.189-0.451-0.297-0.718-0.297c-0.064,0-0.128,0.006-0.19,0.018l-5.814,1.11C337.747,1.569,337.687,1.575,337.627,1.575z
				"/>
		</g>
	</g>
	<path style="fill:none;stroke:#000000;stroke-width:3;stroke-miterlimit:10;" d="M366.647,119.169c0-5.401-4.379-9.78-9.78-9.78
		s-9.78,4.379-9.78,9.78c0,5.401,4.379,9.78,9.78,9.78S366.647,124.571,366.647,119.169z"/>
	<path style="fill:none;stroke:#000000;stroke-width:3;stroke-miterlimit:10;" d="M361.725-114.267c0-5.401-4.379-9.78-9.78-9.78
		c-5.401,0-9.78,4.379-9.78,9.78s4.379,9.78,9.78,9.78C357.347-104.487,361.725-108.865,361.725-114.267z"/>
	<g>
		<g>
			<path style="fill:none;stroke:#000000;stroke-width:3;stroke-miterlimit:10;" d="M-184.724-107.752
				c1.401,1.401,2.845,2.786,4.324,4.153"/>
			<path style="fill:none;stroke:#000000;stroke-width:3;stroke-miterlimit:10;stroke-dasharray:12.6398,12.6398;" d="
				M-170.828-95.357c29.992,24.182,67.565,41.067,67.565,41.067s36.39,12.738,59.783,27.982"/>
			<path style="fill:none;stroke:#000000;stroke-width:3;stroke-miterlimit:10;" d="M-38.286-22.715
				c1.679,1.24,3.251,2.492,4.691,3.749"/>
		</g>
	</g>
	<g>
		<g>
			<path style="fill:none;stroke:#000000;stroke-width:3;stroke-miterlimit:10;" d="M12.622,25.485
				c1.401,1.401,2.845,2.786,4.324,4.153"/>
			<path style="fill:none;stroke:#000000;stroke-width:3;stroke-miterlimit:10;stroke-dasharray:12.6398,12.6398;" d="
				M26.518,37.879C56.51,62.061,94.083,78.946,94.083,78.946s36.389,12.738,59.783,27.982"/>
			<path style="fill:none;stroke:#000000;stroke-width:3;stroke-miterlimit:10;" d="M159.06,110.521
				c1.679,1.24,3.251,2.492,4.691,3.749"/>
		</g>
	</g>
	<g>
		<path style="fill:none;stroke:#000000;stroke-width:3;stroke-miterlimit:10;" d="M-93.141,81.33h-1.807
			c-0.784,0-1.351,0.748-1.14,1.502l1.276,4.57c0.211,0.755-0.357,1.502-1.14,1.502h-20.386c-0.783,0-1.351-0.747-1.141-1.501
			l1.273-4.572c0.21-0.755-0.357-1.501-1.141-1.501h-2.274c-0.817,0-1.388-0.808-1.116-1.578l4.515-12.78
			c0.167-0.474,0.616-0.791,1.119-0.79l0,0c0.655,0.001,1.186-0.529,1.186-1.184V49.346c0-0.654,0.53-1.184,1.184-1.184h12.5
			c0.654,0,1.184,0.53,1.184,1.184v15.686c0,0.653,0.529,1.183,1.182,1.184l0.212,0c0.501,0.001,0.946,0.317,1.114,0.788
			l4.517,12.745C-91.752,80.521-92.323,81.33-93.141,81.33z"/>
		<line style="fill:none;stroke:#000000;stroke-width:3;stroke-miterlimit:10;" x1="-111.192" y1="97.31" x2="-102.1" y2="97.31"/>
		
			<line style="fill:none;stroke:#000000;stroke-width:3;stroke-miterlimit:10;" x1="-106.646" y1="97.31" x2="-106.646" y2="88.904"/>
	</g>
	<g>
		<path style="fill:none;stroke:#000000;stroke-width:3;stroke-miterlimit:10;" d="M101.426-61.244H99.62
			c-0.784,0-1.351,0.748-1.14,1.502l1.276,4.57c0.211,0.755-0.357,1.502-1.14,1.502H78.23c-0.783,0-1.351-0.747-1.141-1.501
			l1.273-4.572c0.21-0.755-0.357-1.501-1.141-1.501h-2.274c-0.817,0-1.388-0.808-1.116-1.578l4.515-12.78
			c0.167-0.474,0.616-0.791,1.119-0.79l0,0c0.655,0.001,1.186-0.529,1.186-1.184v-15.652c0-0.654,0.53-1.184,1.184-1.184h12.5
			c0.654,0,1.184,0.53,1.184,1.184v15.686c0,0.653,0.529,1.183,1.182,1.184l0.212,0c0.501,0.001,0.946,0.317,1.114,0.788
			l4.517,12.745C102.815-62.053,102.244-61.244,101.426-61.244z"/>
		
			<line style="fill:none;stroke:#000000;stroke-width:3;stroke-miterlimit:10;" x1="83.375" y1="-45.264" x2="92.467" y2="-45.264"/>
		<line style="fill:none;stroke:#000000;stroke-width:3;stroke-miterlimit:10;" x1="87.921" y1="-45.264" x2="87.921" y2="-53.67"/>
	</g>
</symbol>
<g>
	
		<use xlink:href="#Новый_символ"  width="600.798" height="307.456" id="XMLID_23_" x="-229.648" y="-155.684" transform="matrix(0.7031 0 0 -0.7031 174.9852 110.9207)" style="overflow:visible;opacity:0.05;"/>
</g>

</svg>
