<svg xmlns="http://www.w3.org/2000/svg" viewBox="-150 336.177 19.735 19.85"><g fill="#4d5a64"><circle cx="-142.504" cy="344.873" r=".83"/><path d="M-144.086 346.9a.83.83 0 1 0 0 1.662.83.83 0 0 0 0-1.662zm1.582 2.833a.83.83 0 1 0 0 1.662.83.83 0 0 0 0-1.662z"/><circle cx="-138.232" cy="344.873" r=".83"/><circle cx="-136.65" cy="347.731" r=".83"/><path d="M-138.232 349.733a.83.83 0 0 1 .83.83c0 .3-.372.83-.83.83a.83.83 0 0 1 0-1.66z"/><path d="M-130.925 347.059h-2.44a7.416 7.416 0 0 0-1.41-3.767l1.619-1.619a.66.66 0 0 0-.932-.932l-1.565 1.565a7.056 7.056 0 0 0-.757-.612c-.075-1.588-1.048-2.93-2.392-3.474l.918-.918a.66.66 0 0 0-.932-.932l-1.317 1.317-1.303-1.304a.66.66 0 0 0-.932.932l.904.905c-1.345.544-2.318 1.886-2.393 3.474-.266.185-.518.39-.756.611l-1.565-1.564a.66.66 0 0 0-.932.932l1.619 1.619a7.416 7.416 0 0 0-1.41 3.767h-2.44a.659.659 0 1 0 0 1.318h2.441a7.394 7.394 0 0 0 1.41 3.767l-1.619 1.619a.66.66 0 0 0 .932.932l1.565-1.564c1.197 1.115 2.765 1.793 4.48 1.793s3.283-.678 4.481-1.794l1.565 1.565c.255.257.67.259.928.004l.004-.004a.66.66 0 0 0 0-.932l-1.619-1.619a7.416 7.416 0 0 0 1.41-3.767h2.44a.658.658 0 1 0-.002-1.318zm-9.208-7.781c1.01 0 1.877.678 2.234 1.636a6.422 6.422 0 0 0-4.469 0c.358-.958 1.225-1.636 2.235-1.636zm-5.479 8.444v-.008c.002-3.005 2.11-5.489 4.82-5.84v11.687c-2.711-.35-4.819-2.834-4.82-5.839zm6.138 5.84v-11.687c2.709.351 4.817 2.833 4.82 5.836v.014c-.003 3.004-2.11 5.486-4.82 5.837z"/></g></svg>