<?xml version="1.0" encoding="iso-8859-1"?>
<!-- Generator: Adobe Illustrator 19.1.0, SVG Export Plug-In . SVG Version: 6.00 Build 0)  -->
<svg version="1.1" id="&#x421;&#x43B;&#x43E;&#x439;_1"
	 xmlns="http://www.w3.org/2000/svg" xmlns:xlink="http://www.w3.org/1999/xlink" x="0px" y="0px" viewBox="0 0 16.804 15.227"
	 style="enable-background:new 0 0 16.804 15.227;" xml:space="preserve">
<path style="fill:#979696;" d="M7.39,14.332l3.376-3.416l3.363-3.322c0.809-0.81,1.245-1.664,1.308-2.563
	c0.071-0.871-0.156-1.653-0.68-2.342c-0.526-0.69-1.21-1.109-2.056-1.262c-0.205-0.036-0.418-0.053-0.64-0.053
	c-0.48,0-0.959,0.118-1.434,0.354c-0.476,0.235-0.85,0.476-1.121,0.72C9.234,2.693,8.867,3.047,8.404,3.509L3.76,8.154
	c-0.178,0.178-0.374,0.36-0.587,0.546C2.835,9.021,2.585,9.262,2.426,9.422c-0.16,0.16-0.347,0.382-0.56,0.667
	c-0.214,0.285-0.354,0.565-0.421,0.841c-0.067,0.275-0.078,0.569-0.033,0.88c0.08,0.56,0.32,0.988,0.72,1.282
	c0.401,0.294,0.845,0.44,1.335,0.44c0.649,0,1.206-0.231,1.668-0.694l7.3-7.3c0.321-0.32,0.409-0.653,0.267-1.001
	c-0.133-0.32-0.369-0.48-0.707-0.48c-0.24,0-0.463,0.103-0.667,0.307c-0.169,0.142-0.342,0.312-0.52,0.507L5.775,9.848L4.854,8.954
	l0.093-0.093l5.178-5.285c0.302-0.302,0.602-0.529,0.901-0.68c0.298-0.151,0.652-0.227,1.061-0.227c0.08,0,0.208,0.009,0.387,0.026
	c0.801,0.152,1.322,0.614,1.561,1.388c0.134,0.418,0.147,0.845,0.04,1.281c-0.106,0.436-0.315,0.81-0.627,1.122l-5.258,5.258
	c-0.152,0.151-0.405,0.422-0.761,0.814c-0.347,0.382-0.612,0.667-0.794,0.854c-0.182,0.187-0.416,0.389-0.7,0.606
	c-0.285,0.218-0.574,0.399-0.868,0.541C4.57,14.809,4.04,14.934,3.48,14.934c-0.623,0-1.197-0.142-1.722-0.427
	c-0.525-0.285-0.943-0.68-1.255-1.188c-0.427-0.694-0.582-1.463-0.467-2.308c0.116-0.845,0.476-1.57,1.081-2.176l6.833-6.833
	C8.582,1.37,9.076,0.947,9.432,0.734C10.233,0.245,11.109,0,12.061,0c0.739,0,1.414,0.147,2.029,0.44
	c0.702,0.32,1.281,0.778,1.735,1.375c0.454,0.596,0.752,1.281,0.894,2.055c0.151,0.827,0.102,1.641-0.146,2.442
	c-0.249,0.801-0.673,1.5-1.268,2.096l-6.9,6.82l-0.921-0.801L7.39,14.332z"/>
<g>
</g>
<g>
</g>
<g>
</g>
<g>
</g>
<g>
</g>
<g>
</g>
<g>
</g>
<g>
</g>
<g>
</g>
<g>
</g>
<g>
</g>
<g>
</g>
<g>
</g>
<g>
</g>
<g>
</g>
</svg>
