<svg xmlns="http://www.w3.org/2000/svg" viewBox="0 0 16.982 16.982"><path d="M5.188.673A8.325 8.325 0 0 1 8.49 0c1.154 0 2.255.225 3.304.673A8.523 8.523 0 0 1 14.5 2.48a8.534 8.534 0 0 1 1.808 2.707 8.307 8.307 0 0 1 .673 3.303 8.307 8.307 0 0 1-.672 3.303A8.523 8.523 0 0 1 14.5 14.5a8.523 8.523 0 0 1-2.706 1.807 8.307 8.307 0 0 1-3.303.673 8.307 8.307 0 0 1-3.302-.673A8.523 8.523 0 0 1 2.48 14.5a8.518 8.518 0 0 1-1.806-2.707A8.283 8.283 0 0 1 0 8.49a8.3 8.3 0 0 1 .673-3.3A8.523 8.523 0 0 1 2.48 2.48 8.53 8.53 0 0 1 5.188.674zm7.428 3.693C11.472 3.223 10.096 2.65 8.49 2.65c-1.606 0-2.98.573-4.124 1.716C3.222 5.51 2.65 6.886 2.65 8.49c0 1.608.572 2.983 1.715 4.126 1.143 1.144 2.52 1.715 4.125 1.715 1.606 0 2.98-.57 4.125-1.714 1.143-1.143 1.715-2.518 1.715-4.125 0-1.605-.57-2.98-1.714-4.124zM9.908 8.49h2.126L8.49 12.745 4.947 8.49h2.126V4.24h2.835v4.25z" fill="#7a8184"/></svg>