<svg xmlns="http://www.w3.org/2000/svg" viewBox="0 0 16.982 16.982"><path d="M5.188.673A8.325 8.325 0 0 1 8.491 0c1.153 0 2.254.225 3.303.673a8.523 8.523 0 0 1 2.707 1.807 8.534 8.534 0 0 1 1.807 2.707 8.307 8.307 0 0 1 .673 3.303 8.307 8.307 0 0 1-.673 3.303 8.523 8.523 0 0 1-1.807 2.707 8.523 8.523 0 0 1-2.707 1.807 8.307 8.307 0 0 1-3.303.673 8.307 8.307 0 0 1-3.303-.673A8.523 8.523 0 0 1 2.481 14.5a8.518 8.518 0 0 1-1.807-2.707A8.283 8.283 0 0 1 0 8.491c0-1.153.224-2.254.673-3.303A8.523 8.523 0 0 1 2.48 2.481 8.53 8.53 0 0 1 5.188.673zm7.428 3.693c-1.144-1.143-2.519-1.715-4.125-1.715-1.607 0-2.982.572-4.125 1.715C3.222 5.509 2.65 6.885 2.65 8.491c0 1.607.572 2.982 1.715 4.125 1.143 1.144 2.519 1.715 4.125 1.715 1.606 0 2.981-.571 4.125-1.715 1.143-1.143 1.715-2.518 1.715-4.125.001-1.606-.571-2.982-1.714-4.125zM9.908 8.491h2.126L8.49 12.744 4.947 8.491h2.126V4.238h2.835v4.253z" fill="#7a8184"/></svg>