<?xml version="1.0" encoding="iso-8859-1"?>
<!-- Generator: Adobe Illustrator 19.1.0, SVG Export Plug-In . SVG Version: 6.00 Build 0)  -->
<svg version="1.1" id="&#x421;&#x43B;&#x43E;&#x439;_1"
	 xmlns="http://www.w3.org/2000/svg" xmlns:xlink="http://www.w3.org/1999/xlink" x="0px" y="0px" viewBox="0 0 16.982 16.982"
	 style="enable-background:new 0 0 16.982 16.982;" xml:space="preserve">
<path style="fill:#7A8184;" d="M5.188,0.673C6.237,0.225,7.338,0,8.491,0c1.153,0,2.254,0.225,3.303,0.673
	c1.049,0.449,1.951,1.051,2.707,1.807c0.756,0.756,1.358,1.659,1.807,2.707c0.449,1.049,0.673,2.15,0.673,3.303
	c0,1.153-0.224,2.254-0.673,3.303c-0.449,1.049-1.051,1.951-1.807,2.707c-0.756,0.756-1.658,1.358-2.707,1.807
	c-1.049,0.449-2.15,0.673-3.303,0.673c-1.153,0-2.254-0.224-3.303-0.673c-1.049-0.449-1.951-1.051-2.707-1.807
	c-0.756-0.756-1.359-1.659-1.807-2.707C0.224,10.745,0,9.644,0,8.491c0-1.153,0.224-2.254,0.673-3.303
	c0.449-1.049,1.051-1.951,1.807-2.707C3.236,1.725,4.139,1.122,5.188,0.673z M12.616,4.366c-1.144-1.143-2.519-1.715-4.125-1.715
	c-1.607,0-2.982,0.572-4.125,1.715C3.222,5.509,2.65,6.885,2.65,8.491c0,1.607,0.572,2.982,1.715,4.125
	c1.143,1.144,2.519,1.715,4.125,1.715c1.606,0,2.981-0.571,4.125-1.715c1.143-1.143,1.715-2.518,1.715-4.125
	C14.331,6.885,13.759,5.509,12.616,4.366z M9.908,8.491h2.126l-3.544,4.253L4.947,8.491h2.126V4.238h2.835V8.491z"/>
<g>
</g>
<g>
</g>
<g>
</g>
<g>
</g>
<g>
</g>
<g>
</g>
<g>
</g>
<g>
</g>
<g>
</g>
<g>
</g>
<g>
</g>
<g>
</g>
<g>
</g>
<g>
</g>
<g>
</g>
</svg>
