<?xml version="1.0" encoding="iso-8859-1"?>
<!-- Generator: Adobe Illustrator 19.1.0, SVG Export Plug-In . SVG Version: 6.00 Build 0)  -->
<svg version="1.1" id="&#x421;&#x43B;&#x43E;&#x439;_1"
	 xmlns="http://www.w3.org/2000/svg" xmlns:xlink="http://www.w3.org/1999/xlink" x="0px" y="0px" viewBox="0 0 25.259 17.446"
	 style="enable-background:new 0 0 25.259 17.446;" xml:space="preserve">
<g>
	<path style="fill:#FFFFFF;" d="M9.713,8.723c0-0.777,0.29-1.458,0.874-2.042s1.265-0.874,2.042-0.874L9.713,8.723z M8.84,9.597
		c-0.097-0.29-0.097-0.584-0.097-0.874c0-2.139,1.748-3.886,3.886-3.886c0.29,0,0.584,0,0.874,0.097l2.621-2.621
		c-1.067-0.29-2.235-0.391-3.5-0.391C3.886,1.92,0,8.723,0,8.723s1.555,2.718,4.953,4.76L8.84,9.597z M15.546,8.723l-2.916,2.916
		c0.777,0,1.458-0.29,2.042-0.874C15.251,10.181,15.546,9.5,15.546,8.723z M20.306,3.963l-3.886,3.886
		c0.097,0.29,0.097,0.584,0.097,0.874c0,2.139-1.748,3.886-3.886,3.886c-0.29,0-0.584,0-0.874-0.097l-2.621,2.621
		c1.067,0.29,2.235,0.386,3.495,0.386c8.743,0,12.629-6.802,12.629-6.802S23.704,6.005,20.306,3.963z M20.392,0L3.907,16.485
		l0.96,0.96l16.49-16.49L20.392,0z"/>
</g>
<g>
</g>
<g>
</g>
<g>
</g>
<g>
</g>
<g>
</g>
<g>
</g>
<g>
</g>
<g>
</g>
<g>
</g>
<g>
</g>
<g>
</g>
<g>
</g>
<g>
</g>
<g>
</g>
<g>
</g>
</svg>
