<svg xmlns="http://www.w3.org/2000/svg" viewBox="0 0 25.259 17.446"><path d="M9.713 8.723c0-.777.29-1.458.874-2.042s1.265-.873 2.042-.873L9.712 8.723zm-.873.874c-.097-.29-.097-.584-.097-.874a3.896 3.896 0 0 1 3.886-3.886c.29 0 .583 0 .873.097l2.62-2.62c-1.066-.29-2.234-.392-3.5-.392C3.887 1.92 0 8.722 0 8.722s1.555 2.72 4.953 4.76L8.84 9.598zm6.706-.874L12.63 11.64c.777 0 1.458-.29 2.042-.875.58-.584.874-1.265.874-2.042zm4.76-4.76L16.42 7.85c.097.29.097.583.097.873a3.896 3.896 0 0 1-3.886 3.886c-.29 0-.583 0-.873-.098l-2.62 2.62c1.066.29 2.234.387 3.494.387 8.744 0 12.63-6.803 12.63-6.803s-1.556-2.712-4.954-4.754zM20.392 0L3.907 16.485l.96.96L21.357.955 20.392 0z" fill="#fff"/></svg>