<?xml version="1.0" encoding="iso-8859-1"?>
<!-- Generator: Adobe Illustrator 19.1.0, SVG Export Plug-In . SVG Version: 6.00 Build 0)  -->
<svg version="1.1" id="&#x421;&#x43B;&#x43E;&#x439;_1"
	 xmlns="http://www.w3.org/2000/svg" xmlns:xlink="http://www.w3.org/1999/xlink" x="0px" y="0px" viewBox="0 0 17.96 16.555"
	 style="enable-background:new 0 0 17.96 16.555;" xml:space="preserve">
<path d="M17.909,0.312C17.819,0.122,17.627,0,17.416,0H0.544C0.334,0,0.142,0.122,0.052,0.312c-0.09,0.191-0.062,0.416,0.072,0.578
	L6.61,8.757v7.254c0,0.188,0.097,0.363,0.257,0.463c0.088,0.054,0.187,0.082,0.287,0.082c0.083,0,0.165-0.019,0.242-0.057
	l3.644-1.806c0.185-0.092,0.302-0.28,0.303-0.487l0.007-5.448l6.486-7.867C17.97,0.728,17.998,0.503,17.909,0.312z M10.386,8.215
	c-0.08,0.097-0.124,0.219-0.124,0.346l-0.007,5.306l-2.556,1.267V8.562c0-0.126-0.044-0.249-0.124-0.346L1.699,1.089h14.563
	L10.386,8.215z"/>
<g>
</g>
<g>
</g>
<g>
</g>
<g>
</g>
<g>
</g>
<g>
</g>
<g>
</g>
<g>
</g>
<g>
</g>
<g>
</g>
<g>
</g>
<g>
</g>
<g>
</g>
<g>
</g>
<g>
</g>
</svg>
