<svg xmlns="http://www.w3.org/2000/svg" viewBox="0 0 11.582 11.582"><g fill="#546e7a"><path d="M2.482 7.446V3.31s.002-.186.1-.414H.827S0 2.896 0 3.723v2.895c0 .827.827.827.827.827v4.136H3.31V8.274s-.828 0-.828-.827zm0-4.964c.215 0 .414-.06.59-.156.025-.015.052-.028.078-.042.344-.22.573-.604.573-1.043a1.24 1.24 0 1 0-1.24 1.242zm8.273.413H9.002c.096.228.098.414.098.414v4.135c0 .827-.827.828-.827.828v3.31h2.482V7.445s.827 0 .827-.827V3.723s0-.83-.827-.83zM8.43 2.283c.027.014.055.028.08.043.176.096.375.156.59.156a1.24 1.24 0 1 0-1.24-1.24c0 .437.228.82.57 1.04z"/><circle cx="5.791" cy="1.241" r="1.241"/><path d="M8.273 3.723s0-.827-.827-.827h-3.31s-.826 0-.826.827v2.895c0 .827.827.827.827.827v4.136h3.31V7.447s.826 0 .826-.827V3.722z"/></g></svg>