<svg xmlns="http://www.w3.org/2000/svg" viewBox="0 0 11.582 11.582"><g fill="#546e7a"><path d="M2.482 7.446V3.31s.002-.186.099-.414H.828S0 2.895 0 3.723v2.895c0 .827.827.827.827.827v4.136h2.482V8.273s-.827 0-.827-.827zM2.482 2.482c.215 0 .414-.06.59-.156.025-.015.052-.028.078-.042.344-.22.573-.604.573-1.043a1.241 1.241 0 1 0-1.241 1.241zM10.755 2.895H9.002c.096.228.098.414.098.414v4.136c0 .827-.827.828-.827.828v3.309h2.482V7.446s.827 0 .827-.827V3.724s0-.829-.827-.829zM8.43 2.283c.027.014.055.028.08.043.176.096.375.156.59.156a1.241 1.241 0 1 0-1.241-1.241c0 .438.229.821.571 1.042z"/><circle cx="5.791" cy="1.241" r="1.241"/><path d="M8.273 3.723s0-.827-.827-.827H4.137s-.827 0-.827.827v2.895c0 .827.827.827.827.827v4.136h3.309V7.446s.827 0 .827-.827V3.723z"/></g></svg>