<svg xmlns="http://www.w3.org/2000/svg" viewBox="0 0 14.92 13.309"><g fill="#546e7a"><path d="M11.244 0c-.126 0-.25.08-.367.236-.013.017-1.316 1.706-4.572 2.71-.238.073-.52.168-.836.206-.176.022-.217-.015-.23-.04a.574.574 0 0 0-.503-.298H1.52a.574.574 0 0 0-.573.573V3.6c0 .13-.09.135-.123.137a8.07 8.07 0 0 1-.072.006A.822.822 0 0 0 0 4.55V6.7a.82.82 0 0 0 .75.805l.106.008c.026.002.09.025.09.14v.207c0 .316.258.573.574.573h.25c.11 0 .13.11.13.11l.89 4.055c.087.398.475.71.883.71H4.7a.658.658 0 0 0 .518-.236.654.654 0 0 0 .12-.556l-.87-3.96s-.032-.122.092-.122h.177c.215 0 .386-.13.5-.295.05-.072.15-.062.205-.05.324.065.618.136.863.21 3.256 1.007 4.56 2.694 4.572 2.71.118.158.24.238.367.238a.292.292 0 0 0 .266-.177.664.664 0 0 0 .055-.288V.466c0-.444-.267-.466-.32-.466zm2.764 2.745a.382.382 0 1 0-.63.434c.508.736.777 1.625.777 2.57 0 .94-.28 1.862-.79 2.592a.382.382 0 1 0 .626.438c.61-.87.93-1.917.93-3.03 0-1.1-.316-2.14-.912-3.005z"/><path d="M12.752 3.825a.382.382 0 1 0-.63.434c.295.427.45.944.45 1.494 0 .548-.162 1.084-.458 1.508a.382.382 0 1 0 .627.438 3.37 3.37 0 0 0 .598-1.945 3.38 3.38 0 0 0-.586-1.93z"/></g></svg>