<?xml version="1.0" encoding="iso-8859-1"?>
<!-- Generator: Adobe Illustrator 19.1.0, SVG Export Plug-In . SVG Version: 6.00 Build 0)  -->
<svg version="1.1" id="&#x421;&#x43B;&#x43E;&#x439;_1"
	 xmlns="http://www.w3.org/2000/svg" xmlns:xlink="http://www.w3.org/1999/xlink" x="0px" y="0px" viewBox="0 0 14.92 13.309"
	 style="enable-background:new 0 0 14.92 13.309;" xml:space="preserve">
<g>
	<path style="fill:#546E7A;" d="M11.244,0c-0.126,0-0.249,0.08-0.367,0.236c-0.013,0.017-1.316,1.706-4.572,2.71
		C6.067,3.019,5.786,3.114,5.469,3.152C5.294,3.174,5.253,3.137,5.239,3.111C5.141,2.934,4.953,2.814,4.737,2.814H1.52
		c-0.316,0-0.573,0.257-0.573,0.573V3.6c0,0.129-0.091,0.135-0.123,0.137C0.778,3.741,0.752,3.743,0.752,3.743
		C0.336,3.773,0,4.135,0,4.549v2.15c0,0.414,0.336,0.776,0.749,0.806c0,0,0.041,0.003,0.107,0.008
		c0.026,0.002,0.091,0.025,0.091,0.14V7.86c0,0.316,0.257,0.573,0.573,0.573c0,0,0.187,0,0.249,0c0.11,0,0.131,0.111,0.131,0.111
		l0.89,4.054c0.087,0.398,0.475,0.71,0.883,0.71h1.027c0.208,0,0.397-0.086,0.518-0.236c0.121-0.15,0.164-0.353,0.119-0.556
		L4.469,8.556c0,0-0.033-0.122,0.091-0.122c0.044,0,0.177,0,0.177,0c0.215,0,0.386-0.129,0.5-0.295
		c0.049-0.071,0.15-0.061,0.205-0.049C5.766,8.155,6.06,8.226,6.305,8.301c3.256,1.006,4.559,2.693,4.572,2.71
		c0.118,0.157,0.241,0.237,0.367,0.237h0c0.114,0,0.211-0.064,0.266-0.177c0.036-0.074,0.055-0.171,0.055-0.289V0.466
		C11.565,0.022,11.298,0,11.244,0z"/>
	<path style="fill:#546E7A;" d="M14.008,2.745c-0.12-0.174-0.358-0.218-0.532-0.098c-0.174,0.12-0.218,0.358-0.098,0.532
		c0.508,0.737,0.777,1.626,0.777,2.571c0,0.941-0.281,1.862-0.791,2.592c-0.121,0.173-0.079,0.411,0.094,0.532
		c0.067,0.047,0.143,0.069,0.219,0.069c0.121,0,0.239-0.057,0.314-0.163c0.608-0.87,0.929-1.917,0.929-3.03
		C14.92,4.649,14.604,3.61,14.008,2.745z"/>
	<path style="fill:#546E7A;" d="M12.752,3.825c-0.12-0.174-0.358-0.218-0.532-0.098c-0.174,0.12-0.218,0.358-0.098,0.532
		c0.295,0.428,0.451,0.945,0.451,1.495c0,0.548-0.163,1.084-0.459,1.508c-0.121,0.173-0.079,0.411,0.094,0.532
		c0.067,0.047,0.143,0.069,0.219,0.069c0.121,0,0.239-0.057,0.314-0.163c0.391-0.559,0.597-1.232,0.597-1.945
		C13.338,5.048,13.135,4.381,12.752,3.825z"/>
</g>
<g>
</g>
<g>
</g>
<g>
</g>
<g>
</g>
<g>
</g>
<g>
</g>
<g>
</g>
<g>
</g>
<g>
</g>
<g>
</g>
<g>
</g>
<g>
</g>
<g>
</g>
<g>
</g>
<g>
</g>
</svg>
