<svg xmlns="http://www.w3.org/2000/svg" viewBox="0 0 14.92 13.309"><g fill="#546e7a"><path d="M11.244 0c-.126 0-.249.08-.367.236-.013.017-1.316 1.706-4.572 2.71-.238.073-.519.168-.836.206-.175.022-.216-.015-.23-.041a.574.574 0 0 0-.502-.297H1.52a.574.574 0 0 0-.573.573V3.6c0 .129-.091.135-.123.137a8.07 8.07 0 0 1-.072.006.822.822 0 0 0-.752.806v2.15c0 .414.336.776.749.806l.107.008c.026.002.091.025.091.14v.207c0 .316.257.573.573.573h.249c.11 0 .131.111.131.111l.89 4.054c.087.398.475.71.883.71H4.7a.658.658 0 0 0 .518-.236.654.654 0 0 0 .119-.556l-.868-3.96s-.033-.122.091-.122h.177c.215 0 .386-.129.5-.295.049-.071.15-.061.205-.049.324.065.618.136.863.211 3.256 1.006 4.559 2.693 4.572 2.71.118.157.241.237.367.237a.292.292 0 0 0 .266-.177.664.664 0 0 0 .055-.289V.466c0-.444-.267-.466-.321-.466zM14.008 2.745a.382.382 0 1 0-.63.434c.508.737.777 1.626.777 2.571 0 .941-.281 1.862-.791 2.592a.382.382 0 1 0 .627.438c.608-.87.929-1.917.929-3.03 0-1.101-.316-2.14-.912-3.005z"/><path d="M12.752 3.825a.382.382 0 1 0-.63.434c.295.428.451.945.451 1.495 0 .548-.163 1.084-.459 1.508a.382.382 0 1 0 .627.438 3.371 3.371 0 0 0 .597-1.945c0-.707-.203-1.374-.586-1.93z"/></g></svg>