<?xml version="1.0" encoding="iso-8859-1"?>
<!-- Generator: Adobe Illustrator 19.1.0, SVG Export Plug-In . SVG Version: 6.00 Build 0)  -->
<svg version="1.1" id="&#x421;&#x43B;&#x43E;&#x439;_1"
	 xmlns="http://www.w3.org/2000/svg" xmlns:xlink="http://www.w3.org/1999/xlink" x="0px" y="0px" viewBox="0 0 14.76 14.451"
	 style="enable-background:new 0 0 14.76 14.451;" xml:space="preserve">
<g>
	<path style="fill:#546E7A;" d="M12.732,5.569l-0.373-0.885c0,0,0.867-1.956,0.79-2.031l-1.148-1.121
		c-0.079-0.077-2.036,0.816-2.036,0.816L9.063,1.983c0,0-0.797-1.983-0.907-1.983h-1.62C6.424,0,5.686,1.987,5.686,1.987
		L4.785,2.353c0,0-1.998-0.849-2.074-0.773L1.565,2.701C1.486,2.778,2.398,4.695,2.398,4.695L2.025,5.579
		c0,0-2.025,0.78-2.025,0.885v1.588c0,0.111,2.03,0.833,2.03,0.833l0.373,0.883c0,0-0.867,1.955-0.791,2.03l1.147,1.123
		c0.078,0.076,2.035-0.817,2.035-0.817l0.903,0.366c0,0,0.797,1.981,0.907,1.981h1.62c0.112,0,0.851-1.987,0.851-1.987l0.904-0.366
		c0,0,1.994,0.849,2.071,0.775l1.147-1.122c0.08-0.079-0.834-1.994-0.834-1.994l0.372-0.884c0,0,2.026-0.781,2.026-0.888V6.399
		C14.761,6.289,12.732,5.569,12.732,5.569z M9.747,7.225c0,1.276-1.062,2.316-2.366,2.316c-1.303,0-2.366-1.039-2.366-2.316
		S6.077,4.911,7.38,4.911C8.685,4.912,9.747,5.949,9.747,7.225z"/>
</g>
<g>
</g>
<g>
</g>
<g>
</g>
<g>
</g>
<g>
</g>
<g>
</g>
<g>
</g>
<g>
</g>
<g>
</g>
<g>
</g>
<g>
</g>
<g>
</g>
<g>
</g>
<g>
</g>
<g>
</g>
</svg>
