<svg xmlns="http://www.w3.org/2000/svg" viewBox="0 0 14.76 14.451"><path d="M12.732 5.57l-.373-.886s.866-1.956.79-2.03L12 1.53c-.078-.077-2.035.816-2.035.816l-.902-.365S8.266 0 8.156 0h-1.62c-.112 0-.85 1.987-.85 1.987l-.9.366s-2-.85-2.075-.773L1.566 2.7c-.08.078.833 1.995.833 1.995l-.373.884S0 6.36 0 6.463v1.588c0 .11 2.03.833 2.03.833l.373.883s-.867 1.955-.79 2.03l1.146 1.123c.077.077 2.034-.816 2.034-.816l.903.366s.797 1.98.907 1.98h1.62c.112 0 .85-1.986.85-1.986l.905-.366s1.993.85 2.07.775l1.147-1.122c.08-.078-.834-1.993-.834-1.993l.372-.884s2.026-.78 2.026-.888V6.4c0-.11-2.028-.83-2.028-.83zM9.747 7.224C9.747 8.5 8.685 9.54 7.38 9.54c-1.302 0-2.365-1.038-2.365-2.315S6.077 4.91 7.38 4.91c1.305.002 2.367 1.04 2.367 2.315z" fill="#546e7a"/></svg>