<svg xmlns="http://www.w3.org/2000/svg" viewBox="0 0 14.76 14.451"><path d="M12.732 5.569l-.373-.885s.867-1.956.79-2.031l-1.148-1.121c-.079-.077-2.036.816-2.036.816l-.902-.365S8.266 0 8.156 0h-1.62c-.112 0-.85 1.987-.85 1.987l-.901.366s-1.998-.849-2.074-.773L1.565 2.701c-.079.077.833 1.994.833 1.994l-.373.884S0 6.359 0 6.464v1.588c0 .111 2.03.833 2.03.833l.373.883s-.867 1.955-.791 2.03l1.147 1.123c.078.076 2.035-.817 2.035-.817l.903.366s.797 1.981.907 1.981h1.62c.112 0 .851-1.987.851-1.987l.904-.366s1.994.849 2.071.775l1.147-1.122c.08-.079-.834-1.994-.834-1.994l.372-.884s2.026-.781 2.026-.888V6.399c0-.11-2.029-.83-2.029-.83zM9.747 7.225c0 1.276-1.062 2.316-2.366 2.316-1.303 0-2.366-1.039-2.366-2.316S6.077 4.911 7.38 4.911c1.305.001 2.367 1.038 2.367 2.314z" fill="#546e7a"/></svg>