<svg xmlns="http://www.w3.org/2000/svg" viewBox="0 0 18.579 18.579"><path d="M6.551 13.861a.37.37 0 0 1-.37-.371V5.088a.37.37 0 1 1 .555-.321l7.276 4.201a.372.372 0 0 1 0 .642l-7.276 4.201a.37.37 0 0 1-.185.05zm.37-8.131v7.119l6.165-3.559-6.165-3.56z" fill="#757575" stroke="#757575" stroke-width=".5" stroke-miterlimit="10"/><path d="M9.289 18.329a8.977 8.977 0 0 1-6.392-2.648A8.98 8.98 0 0 1 .25 9.289c0-2.415.94-4.685 2.648-6.392A8.98 8.98 0 0 1 9.289.25c2.415 0 4.685.94 6.392 2.648s2.648 3.977 2.648 6.392-.94 4.685-2.648 6.392a8.98 8.98 0 0 1-6.392 2.647zm0-17.338a8.24 8.24 0 0 0-5.868 2.431C1.854 4.989.991 7.073.991 9.29s.863 4.301 2.431 5.868a8.245 8.245 0 0 0 5.868 2.431c2.217 0 4.301-.863 5.868-2.431s2.431-3.651 2.431-5.868-.863-4.301-2.431-5.868S11.506.991 9.289.991z" fill="#757575" stroke="#757575" stroke-width=".5" stroke-miterlimit="10"/></svg>