<svg xmlns="http://www.w3.org/2000/svg" viewBox="0 0 18.579 18.579"><path d="M6.55 13.86a.37.37 0 0 1-.37-.37V5.088a.37.37 0 1 1 .556-.32l7.276 4.2a.372.372 0 0 1 0 .642l-7.276 4.2a.37.37 0 0 1-.185.05zm.37-8.13v7.12l6.166-3.56L6.92 5.73z" fill="#757575" stroke="#757575" stroke-width=".5" stroke-miterlimit="10"/><path d="M9.29 18.33a8.977 8.977 0 0 1-6.393-2.65A8.98 8.98 0 0 1 .25 9.29c0-2.416.94-4.686 2.648-6.393A8.98 8.98 0 0 1 9.288.25c2.416 0 4.686.94 6.393 2.648s2.65 3.977 2.65 6.392-.94 4.685-2.65 6.392a8.98 8.98 0 0 1-6.39 2.647zm0-17.34a8.24 8.24 0 0 0-5.87 2.432C1.855 4.99.99 7.072.99 9.29s.864 4.3 2.432 5.868a8.245 8.245 0 0 0 5.868 2.43c2.217 0 4.3-.862 5.868-2.43s2.43-3.65 2.43-5.868-.862-4.3-2.43-5.868-3.652-2.43-5.87-2.43z" fill="#757575" stroke="#757575" stroke-width=".5" stroke-miterlimit="10"/></svg>