<?xml version="1.0" encoding="iso-8859-1"?>
<!-- Generator: Adobe Illustrator 19.1.0, SVG Export Plug-In . SVG Version: 6.00 Build 0)  -->
<svg version="1.1" id="&#x421;&#x43B;&#x43E;&#x439;_1"
	 xmlns="http://www.w3.org/2000/svg" xmlns:xlink="http://www.w3.org/1999/xlink" x="0px" y="0px" viewBox="0 0 18.579 18.579"
	 style="enable-background:new 0 0 18.579 18.579;" xml:space="preserve">
<g>
	<g>
		<path style="fill:#757575;stroke:#757575;stroke-width:0.5;stroke-miterlimit:10;" d="M6.551,13.861
			c-0.064,0-0.128-0.017-0.185-0.05c-0.115-0.066-0.185-0.188-0.185-0.321V5.088c0-0.132,0.071-0.255,0.185-0.321
			s0.256-0.066,0.37,0l7.276,4.201c0.115,0.066,0.185,0.188,0.185,0.321c0,0.132-0.071,0.255-0.185,0.321l-7.276,4.201
			C6.679,13.844,6.615,13.861,6.551,13.861z M6.921,5.73v7.119l6.165-3.559L6.921,5.73z"/>
	</g>
	<g>
		<path style="fill:#757575;stroke:#757575;stroke-width:0.5;stroke-miterlimit:10;" d="M9.289,18.329
			c-2.415,0-4.685-0.94-6.392-2.648C1.19,13.974,0.25,11.704,0.25,9.289s0.94-4.685,2.648-6.392C4.605,1.19,6.875,0.25,9.289,0.25
			c2.415,0,4.685,0.94,6.392,2.648s2.648,3.977,2.648,6.392s-0.94,4.685-2.648,6.392C13.974,17.389,11.704,18.329,9.289,18.329z
			 M9.289,0.991c-2.217,0-4.301,0.863-5.868,2.431C1.854,4.989,0.991,7.073,0.991,9.29s0.863,4.301,2.431,5.868
			c1.567,1.567,3.651,2.431,5.868,2.431c2.217,0,4.301-0.863,5.868-2.431s2.431-3.651,2.431-5.868s-0.863-4.301-2.431-5.868
			S11.506,0.991,9.289,0.991z"/>
	</g>
</g>
<g>
</g>
<g>
</g>
<g>
</g>
<g>
</g>
<g>
</g>
<g>
</g>
<g>
</g>
<g>
</g>
<g>
</g>
<g>
</g>
<g>
</g>
<g>
</g>
<g>
</g>
<g>
</g>
<g>
</g>
</svg>
