<svg xmlns="http://www.w3.org/2000/svg" viewBox="0 0 18.179 18.179"><g fill="#455a64"><path d="M9.089 0a.37.37 0 0 0 .001.74c4.604 0 8.35 3.746 8.35 8.35s-3.746 8.35-8.35 8.35S.74 13.694.74 9.09a8.33 8.33 0 0 1 4.512-7.418.37.37 0 0 0-.34-.657A9.066 9.066 0 0 0 0 9.089c0 5.012 4.078 9.089 9.089 9.089s9.089-4.078 9.089-9.089S14.101 0 9.089 0z"/><path d="M12.653 4.407A5.828 5.828 0 0 0 9.09 3.206c-3.244 0-5.884 2.64-5.884 5.884s2.64 5.884 5.884 5.884a5.848 5.848 0 0 0 4.161-1.723.37.37 0 0 0-.523-.523 5.109 5.109 0 0 1-3.637 1.507c-2.836 0-5.144-2.308-5.144-5.144s2.308-5.144 5.144-5.144a5.168 5.168 0 0 1 4.94 3.706.37.37 0 0 0 .71-.206 5.925 5.925 0 0 0-2.088-3.04z"/><path d="M13.427 7.97a.37.37 0 0 0-.523.523l1.392 1.392a.37.37 0 0 0 .524 0l1.392-1.392a.37.37 0 0 0-.523-.523l-1.13 1.13-1.132-1.13z"/></g></svg>