<?xml version="1.0" encoding="iso-8859-1"?>
<!-- Generator: Adobe Illustrator 19.1.0, SVG Export Plug-In . SVG Version: 6.00 Build 0)  -->
<svg version="1.1" id="&#x421;&#x43B;&#x43E;&#x439;_1"
	 xmlns="http://www.w3.org/2000/svg" xmlns:xlink="http://www.w3.org/1999/xlink" x="0px" y="0px" viewBox="0 0 18.179 18.179"
	 style="enable-background:new 0 0 18.179 18.179;" xml:space="preserve">
<g>
	<g>
		<path style="fill:#455A64;" d="M9.089,0C8.885,0,8.72,0.166,8.72,0.37s0.166,0.37,0.37,0.37c4.604,0,8.35,3.746,8.35,8.35
			s-3.746,8.35-8.35,8.35s-8.35-3.746-8.35-8.35c0-3.132,1.729-5.975,4.512-7.418C5.433,1.578,5.504,1.355,5.41,1.173
			C5.316,0.992,5.093,0.921,4.912,1.015C1.882,2.586,0,5.68,0,9.089c0,5.012,4.078,9.089,9.089,9.089s9.089-4.078,9.089-9.089
			S14.101,0,9.089,0z"/>
		<path style="fill:#455A64;" d="M12.653,4.407c-1.031-0.786-2.263-1.201-3.563-1.201c-3.244,0-5.884,2.64-5.884,5.884
			s2.64,5.884,5.884,5.884c1.572,0,3.049-0.612,4.161-1.723c0.144-0.144,0.144-0.379,0-0.523c-0.144-0.144-0.379-0.144-0.523,0
			c-0.972,0.972-2.263,1.507-3.637,1.507c-2.836,0-5.144-2.308-5.144-5.144s2.308-5.144,5.144-5.144c2.275,0,4.306,1.524,4.94,3.706
			c0.057,0.196,0.262,0.309,0.458,0.252c0.196-0.057,0.309-0.262,0.252-0.458C14.392,6.246,13.651,5.167,12.653,4.407z"/>
		<path style="fill:#455A64;" d="M13.427,7.97c-0.145-0.144-0.379-0.144-0.523,0c-0.144,0.144-0.144,0.379,0,0.523l1.392,1.392
			c0.069,0.069,0.163,0.108,0.262,0.108s0.192-0.039,0.262-0.108l1.392-1.392c0.144-0.144,0.144-0.379,0-0.523
			c-0.145-0.144-0.379-0.144-0.523,0l-1.13,1.13L13.427,7.97z"/>
	</g>
</g>
<g>
</g>
<g>
</g>
<g>
</g>
<g>
</g>
<g>
</g>
<g>
</g>
<g>
</g>
<g>
</g>
<g>
</g>
<g>
</g>
<g>
</g>
<g>
</g>
<g>
</g>
<g>
</g>
<g>
</g>
</svg>
