<svg xmlns="http://www.w3.org/2000/svg" viewBox="0 0 18.179 18.179"><g fill="#455a64"><path d="M9.09 0a.37.37 0 0 0 0 .74c4.604 0 8.35 3.746 8.35 8.35s-3.746 8.35-8.35 8.35S.74 13.694.74 9.09a8.33 8.33 0 0 1 4.512-7.418.37.37 0 0 0-.34-.657A9.066 9.066 0 0 0 0 9.09c0 5.01 4.078 9.088 9.09 9.088s9.088-4.078 9.088-9.09S14.1 0 9.088 0z"/><path d="M12.653 4.407a5.828 5.828 0 0 0-3.563-1.2c-3.244 0-5.884 2.64-5.884 5.883s2.64 5.884 5.884 5.884a5.848 5.848 0 0 0 4.16-1.723.37.37 0 0 0-.522-.522 5.11 5.11 0 0 1-3.637 1.507c-2.835 0-5.143-2.308-5.143-5.144S6.255 3.948 9.09 3.948a5.168 5.168 0 0 1 4.94 3.706.37.37 0 0 0 .71-.206 5.925 5.925 0 0 0-2.087-3.04z"/><path d="M13.427 7.97a.37.37 0 0 0-.523.523l1.392 1.392a.37.37 0 0 0 .524 0l1.392-1.392a.37.37 0 0 0-.523-.523L14.56 9.1l-1.133-1.13z"/></g></svg>